<svg xmlns="http://www.w3.org/2000/svg" xmlns:xlink="http://www.w3.org/1999/xlink" width="500" zoomAndPan="magnify" viewBox="0 0 375 374.999991" height="500" preserveAspectRatio="xMidYMid meet" version="1.0"><defs><clipPath id="55aac500f1"><path d="M 39 37.5 L 181 37.5 L 181 337.5 L 39 337.5 Z M 39 37.5 " clip-rule="nonzero"/></clipPath><clipPath id="e6cccb710d"><path d="M 193 37.5 L 334 37.5 L 334 337.5 L 193 337.5 Z M 193 37.5 " clip-rule="nonzero"/></clipPath></defs><g clip-path="url(#55aac500f1)"><path fill="#ffffff" d="M 180.027344 73.960938 C 180.027344 48.195312 155.441406 37.5 142.277344 37.5 C 134.375 37.5 118.675781 42.824219 110.082031 54.253906 C 105.863281 59.867188 103.96875 66.25 104.460938 73 C 96.628906 71.859375 83.898438 71.582031 76.148438 84.015625 C 70.570312 92.964844 69.996094 100.339844 70.597656 105.148438 C 62.464844 106.144531 47.960938 110.121094 42.363281 125.617188 C 38.148438 137.257812 38.886719 149.265625 42.457031 158.828125 C 42.464844 158.851562 42.464844 158.871094 42.46875 158.894531 C 43.269531 161.582031 44.699219 164.480469 46.769531 167.304688 C 46.792969 167.34375 46.824219 167.382812 46.851562 167.421875 C 47 167.621094 47.140625 167.820312 47.292969 168.019531 C 48.140625 169.195312 49.027344 170.308594 49.972656 171.296875 C 46.285156 174.292969 44.164062 178.625 43.671875 186.570312 C 43.113281 195.492188 46.992188 206.257812 53.75 211.796875 C 49.140625 216.5 45.078125 223.578125 46.078125 238.457031 C 46.992188 247.625 52.132812 256.929688 59.496094 262.738281 C 63.367188 265.796875 67.671875 267.652344 72.03125 268.335938 C 72.316406 268.425781 72.613281 268.492188 72.921875 268.523438 C 73.023438 268.53125 73.148438 268.527344 73.25 268.539062 C 73.375 268.550781 73.5 268.589844 73.625 268.601562 C 74.367188 272.902344 76.75 277.710938 79.535156 281.316406 C 84.101562 287.226562 89.960938 290.648438 96.328125 291.203125 C 98.199219 298.503906 102.394531 309.453125 114.746094 310.941406 C 115.707031 317.863281 118.097656 323.601562 121.941406 328.0625 C 126.742188 333.625 133.570312 336.859375 141.6875 337.417969 C 142.507812 337.472656 143.328125 337.5 144.152344 337.5 C 153.859375 337.5 163.886719 333.644531 170.820312 327.140625 C 176.796875 321.53125 180.0625 314.304688 180.015625 306.820312 L 180.015625 146.476562 C 180.015625 146.472656 180.015625 146.472656 180.015625 146.46875 L 180.015625 74.378906 C 180.015625 74.238281 180.027344 74.105469 180.027344 73.960938 Z M 171.359375 135.996094 C 167.777344 133.914062 163.421875 132.359375 158.90625 131.757812 C 146.714844 130.132812 136.335938 135.6875 130.339844 147.144531 C 123.476562 161.585938 128.902344 172.464844 132.746094 177.667969 C 137.738281 184.417969 145.34375 188.910156 151.46875 188.910156 C 152.03125 188.910156 152.582031 188.871094 153.117188 188.796875 C 155.484375 188.449219 157.125 186.257812 156.78125 183.894531 C 156.433594 181.53125 154.230469 179.878906 151.871094 180.238281 C 149.792969 180.539062 143.925781 178.226562 139.710938 172.53125 C 136.421875 168.078125 133.480469 160.703125 138.085938 151.003906 C 143.304688 141.042969 151.28125 139.648438 157.046875 140.246094 C 165.128906 141.070312 170.621094 145.621094 171.359375 147.28125 L 171.359375 306.847656 C 171.398438 313.355469 167.867188 318.046875 164.894531 320.835938 C 159.070312 326.304688 150.398438 329.335938 142.285156 328.789062 C 138.265625 328.515625 132.617188 327.183594 128.503906 322.417969 C 124.144531 317.363281 122.277344 309.257812 123.085938 299.175781 C 123.671875 294.554688 129.449219 285.382812 137.167969 281.527344 C 141.597656 279.316406 145.828125 279.324219 149.738281 281.539062 C 151.816406 282.726562 154.460938 281.992188 155.640625 279.917969 C 156.820312 277.84375 156.09375 275.203125 154.015625 274.023438 C 147.53125 270.339844 140.367188 270.261719 133.292969 273.792969 C 133.140625 273.871094 133 273.980469 132.847656 274.058594 C 130.980469 272.148438 128.179688 270.839844 124.664062 270.4375 C 118.742188 269.765625 112.214844 271.765625 111.148438 276.90625 C 110.664062 279.246094 112.167969 281.53125 114.511719 282.015625 C 116.5625 282.445312 118.582031 281.332031 119.371094 279.476562 C 120.203125 279.097656 122.332031 278.71875 124.492188 279.160156 C 124.871094 279.234375 125.1875 279.328125 125.457031 279.421875 C 119.433594 285.09375 115.191406 292.628906 114.472656 298.285156 C 114.371094 299.574219 114.328125 300.816406 114.296875 302.050781 C 107.78125 300.382812 105.714844 293.773438 103.996094 285.960938 L 103.175781 282.238281 L 99.375 282.582031 C 93.859375 283.089844 89.789062 279.9375 87.367188 277.210938 C 84.609375 274.105469 83.066406 270.605469 82.410156 268.222656 C 94.589844 266.433594 109.613281 258.863281 113.574219 238.207031 C 114.925781 237.722656 116.277344 237.140625 117.632812 236.320312 C 117.703125 236.277344 117.761719 236.21875 117.828125 236.171875 C 122.78125 233.410156 127.960938 228.929688 131.4375 223.183594 C 135.5 216.484375 136.574219 209.277344 134.539062 202.347656 C 133.867188 200.054688 131.464844 198.742188 129.167969 199.414062 C 126.875 200.085938 125.558594 202.488281 126.230469 204.78125 C 127.582031 209.382812 126.84375 214.070312 124.03125 218.710938 C 121.21875 223.351562 116.722656 227.105469 112.765625 229.109375 C 112.664062 229.167969 112.5625 229.207031 112.460938 229.261719 C 111.1875 229.882812 109.972656 230.324219 108.902344 230.539062 C 99.644531 232.292969 90.382812 223.449219 90.277344 223.347656 C 88.570312 221.683594 85.835938 221.707031 84.160156 223.40625 C 82.484375 225.109375 82.507812 227.847656 84.214844 229.519531 C 84.714844 230.015625 93.472656 238.449219 104.402344 239.40625 C 100.863281 252.304688 91.691406 257.191406 84.292969 258.988281 L 77.398438 259.917969 C 76.972656 259.976562 76.5625 259.980469 76.144531 259.996094 C 75.167969 260.003906 74.453125 259.96875 74.066406 259.9375 C 74.027344 259.933594 73.980469 259.933594 73.941406 259.929688 C 73.875 259.925781 73.816406 259.917969 73.785156 259.914062 C 73.773438 259.914062 73.761719 259.917969 73.75 259.914062 C 70.070312 259.445312 66.984375 257.628906 64.863281 255.957031 C 59.363281 251.613281 55.371094 244.410156 54.703125 237.742188 C 53.703125 222.8125 58.496094 218.832031 63.574219 214.613281 L 70.703125 208.675781 L 62.253906 206.699219 C 56.804688 205.421875 51.785156 195.535156 52.3125 187.105469 C 52.746094 180.105469 54.328125 178.261719 57.335938 176.730469 C 61.816406 179.371094 67.296875 181.40625 73.902344 182.3125 C 75.429688 182.523438 76.910156 182.621094 78.355469 182.621094 C 83.332031 182.621094 87.792969 181.445312 91.695312 179.746094 C 93.675781 180.921875 97.78125 184.410156 97.535156 189.160156 C 97.167969 196.332031 92.128906 201.777344 92.007812 201.910156 C 90.359375 203.628906 90.414062 206.355469 92.128906 208.011719 C 92.96875 208.820312 94.050781 209.222656 95.132812 209.222656 C 96.269531 209.222656 97.402344 208.78125 98.25 207.898438 C 98.550781 207.585938 105.644531 200.128906 106.183594 189.601562 C 106.492188 183.546875 103.398438 178.484375 99.730469 175.074219 C 105.316406 170.941406 108.570312 166.582031 108.839844 166.210938 C 110.246094 164.277344 109.816406 161.574219 107.882812 160.171875 C 105.945312 158.765625 103.238281 159.195312 101.835938 161.128906 C 101.765625 161.226562 97.101562 167.484375 89.484375 171.226562 C 89.480469 171.226562 89.480469 171.230469 89.476562 171.230469 C 85.433594 173.214844 80.566406 174.5 75.082031 173.746094 C 70.679688 173.140625 66.992188 171.933594 63.890625 170.410156 L 60.847656 168.722656 C 57.851562 166.796875 55.582031 164.574219 53.941406 162.410156 C 48.785156 154.761719 45.769531 141.628906 50.503906 128.550781 C 55.242188 115.429688 69.449219 113.710938 74.300781 113.503906 L 87.109375 126.710938 C 84.335938 128.3125 81.019531 129.289062 77.078125 129.46875 C 74.6875 129.578125 72.839844 131.601562 72.949219 133.988281 C 73.058594 136.304688 74.972656 138.113281 77.273438 138.113281 C 77.339844 138.113281 77.40625 138.109375 77.472656 138.105469 C 85.933594 137.71875 92.683594 134.785156 97.539062 129.382812 C 106.007812 119.96875 105.285156 106.527344 105.25 105.960938 C 105.105469 103.574219 103.0625 101.777344 100.664062 101.910156 C 98.277344 102.054688 96.464844 104.105469 96.609375 106.488281 C 96.613281 106.578125 96.941406 114.238281 93.25 120.609375 L 79.777344 106.71875 C 79.132812 105.042969 77.328125 98.480469 83.496094 88.582031 C 89.023438 79.714844 98.269531 80.59375 106.503906 82.113281 C 107.027344 82.210938 107.507812 82.296875 107.953125 82.375 L 118.519531 91.441406 C 119.335938 92.140625 120.339844 92.484375 121.339844 92.484375 C 122.558594 92.484375 123.769531 91.972656 124.625 90.980469 C 126.183594 89.167969 125.976562 86.4375 124.164062 84.882812 L 113.6875 75.890625 C 112.246094 69.855469 113.339844 64.324219 117.007812 59.445312 C 123.664062 50.59375 136.796875 46.148438 142.277344 46.148438 C 150.035156 46.148438 171.308594 52.726562 171.367188 73.878906 C 171.363281 73.90625 171.359375 73.929688 171.359375 73.953125 L 171.359375 74.273438 C 171.21875 93.253906 158.878906 97.742188 157.378906 98.203125 C 155.449219 98.09375 153.792969 99.316406 153.179688 101.15625 C 152.421875 103.421875 153.648438 105.871094 155.917969 106.628906 C 159.792969 107.910156 166.160156 103.464844 166.871094 102.953125 C 168.199219 102 169.773438 100.667969 171.359375 98.917969 Z M 171.359375 135.996094 " fill-opacity="1" fill-rule="nonzero"/></g><g clip-path="url(#e6cccb710d)"><path fill="#ffffff" d="M 330.523438 186.644531 L 330.5 186.347656 C 329.621094 178.652344 326.695312 174.203125 323.164062 171.332031 C 332.238281 161.847656 337.203125 143.289062 330.8125 125.617188 C 325.210938 110.121094 310.707031 106.144531 302.574219 105.148438 C 303.175781 100.339844 302.597656 92.964844 297.023438 84.015625 C 289.300781 71.625 276.625 71.855469 268.789062 72.988281 C 269.507812 65.628906 267.632812 58.800781 263.246094 52.96875 C 255.257812 42.339844 240.875 37.5 230.894531 37.5 C 217.730469 37.5 193.144531 48.195312 193.144531 73.960938 C 193.144531 74.089844 193.15625 74.207031 193.15625 74.335938 L 193.15625 306.789062 C 193.109375 314.304688 196.371094 321.53125 202.347656 327.140625 C 209.285156 333.644531 219.3125 337.5 229.015625 337.5 C 229.84375 337.5 230.664062 337.472656 231.480469 337.414062 C 246.328125 336.398438 256.171875 326.589844 258.410156 310.941406 C 270.71875 309.46875 274.9375 298.597656 276.816406 291.296875 C 283.097656 291.050781 288.664062 288.71875 292.757812 284.550781 C 296.894531 280.339844 299.335938 274.394531 299.632812 268.085938 C 315.96875 265.734375 325.726562 256.152344 327.261719 240.773438 C 328.417969 229.09375 325.621094 219.351562 318.941406 211.730469 C 325.402344 207.222656 331.121094 200.042969 330.523438 186.644531 Z M 209.578125 312.570312 C 207.375 312.570312 205.585938 310.785156 205.585938 308.582031 C 205.585938 306.382812 207.375 304.59375 209.578125 304.59375 C 211.78125 304.59375 213.570312 306.382812 213.570312 308.582031 C 213.570312 310.785156 211.78125 312.570312 209.578125 312.570312 Z M 207.679688 316.097656 L 207.679688 320.238281 C 205.707031 318.257812 203.632812 315.472656 202.558594 311.890625 C 203.542969 313.964844 205.410156 315.527344 207.679688 316.097656 Z M 309.902344 207.074219 L 304.140625 210.070312 L 309.128906 214.226562 C 313.914062 218.210938 320.101562 225.207031 318.644531 239.917969 C 317.398438 252.378906 309.632812 258.910156 294.90625 259.886719 L 290.398438 260.1875 L 290.890625 264.671875 C 291.472656 269.988281 289.859375 275.152344 286.578125 278.496094 C 284.144531 280.96875 280.894531 282.367188 277.046875 282.617188 L 275.683594 237.507812 L 288.25 226.105469 C 289.855469 227.195312 291.789062 227.835938 293.871094 227.835938 C 299.398438 227.835938 303.894531 223.34375 303.894531 217.824219 C 303.894531 212.304688 299.398438 207.816406 293.871094 207.816406 C 288.34375 207.816406 283.847656 212.304688 283.847656 217.824219 C 283.847656 219.898438 284.484375 221.824219 285.566406 223.425781 L 271.839844 235.875 L 273.253906 282.53125 L 269.996094 282.238281 L 269.175781 285.960938 C 267.273438 294.59375 264.941406 301.761719 256.667969 302.414062 L 256.667969 263.378906 L 251.183594 258.238281 L 251.183594 238.414062 L 263.230469 226.550781 C 264.492188 227.433594 266.023438 227.964844 267.683594 227.964844 C 271.972656 227.964844 275.46875 224.472656 275.46875 220.1875 C 275.46875 215.902344 271.976562 212.410156 267.683594 212.410156 C 263.390625 212.410156 259.894531 215.898438 259.894531 220.1875 C 259.894531 221.445312 260.222656 222.617188 260.753906 223.667969 L 247.390625 236.832031 L 247.390625 254.6875 L 240.214844 247.960938 L 240.214844 220.894531 C 243.589844 220.042969 246.105469 217.007812 246.105469 213.378906 C 246.105469 209.089844 242.609375 205.601562 238.316406 205.601562 C 234.023438 205.601562 230.53125 209.089844 230.53125 213.378906 C 230.53125 217.007812 233.046875 220.042969 236.417969 220.894531 L 236.417969 249.601562 L 252.875 265.015625 L 252.875 302.75 C 252.480469 302.910156 252.117188 303.132812 251.789062 303.402344 C 251.722656 303.453125 251.652344 303.496094 251.59375 303.550781 C 251.578125 303.566406 251.5625 303.582031 251.546875 303.597656 C 250.953125 304.152344 250.515625 304.875 250.308594 305.699219 C 250.285156 305.789062 250.28125 305.882812 250.265625 305.976562 C 250.230469 306.15625 250.191406 306.332031 250.179688 306.519531 C 249.601562 316.171875 245.953125 322.945312 239.710938 326.34375 L 232.089844 319.316406 L 232.089844 300.683594 C 235.464844 299.832031 237.980469 296.796875 237.980469 293.164062 C 237.980469 288.878906 234.488281 285.386719 230.195312 285.386719 C 225.902344 285.386719 222.40625 288.878906 222.40625 293.164062 C 222.40625 296.796875 224.921875 299.828125 228.296875 300.683594 L 228.296875 320.976562 L 235.832031 327.921875 C 234.292969 328.363281 232.648438 328.667969 230.882812 328.789062 C 224.148438 329.242188 217.039062 327.195312 211.472656 323.359375 L 211.472656 316.097656 C 214.847656 315.246094 217.363281 312.214844 217.363281 308.582031 C 217.363281 304.296875 213.871094 300.804688 209.578125 300.804688 C 205.558594 300.804688 202.277344 303.875 201.871094 307.78125 C 201.855469 307.457031 201.808594 307.148438 201.8125 306.816406 L 201.8125 269.871094 L 205.261719 273.605469 L 226.457031 273.605469 C 227.347656 277.121094 230.515625 279.742188 234.308594 279.742188 C 238.789062 279.742188 242.433594 276.101562 242.433594 271.628906 C 242.433594 267.15625 238.789062 263.515625 234.308594 263.515625 C 230.515625 263.515625 227.347656 266.136719 226.457031 269.652344 L 206.992188 269.652344 L 201.8125 264.046875 L 201.8125 240.113281 L 209.035156 240.113281 C 209.921875 244.007812 213.398438 246.929688 217.5625 246.929688 C 222.390625 246.929688 226.316406 243.007812 226.316406 238.183594 C 226.316406 233.359375 222.390625 229.4375 217.5625 229.4375 C 213.398438 229.4375 209.921875 232.359375 209.035156 236.253906 L 201.8125 236.253906 L 201.8125 179.53125 C 206.21875 179.5 210.40625 179.496094 214.792969 179.496094 L 214.792969 198.613281 C 212.316406 199.171875 210.460938 201.375 210.460938 204.015625 C 210.460938 207.078125 212.953125 209.566406 216.019531 209.566406 C 219.082031 209.566406 221.574219 207.078125 221.574219 204.015625 C 221.574219 201.378906 219.71875 199.171875 217.246094 198.613281 L 217.246094 180.328125 C 221.707031 184.8125 226.050781 189.296875 230.410156 193.808594 L 232.097656 195.554688 L 233.863281 193.855469 L 232.179688 192.105469 C 229.734375 189.578125 227.292969 187.054688 224.839844 184.539062 L 243.96875 184.539062 C 244.53125 187.007812 246.738281 188.863281 249.382812 188.863281 C 252.449219 188.863281 254.9375 186.375 254.9375 183.3125 C 254.9375 180.25 252.449219 177.761719 249.382812 177.761719 C 246.738281 177.761719 244.53125 179.613281 243.96875 182.085938 L 222.421875 182.085938 C 220.886719 180.523438 219.359375 178.960938 217.796875 177.402344 L 217.4375 177.042969 L 216.929688 177.042969 C 211.722656 177.042969 206.933594 177.046875 201.8125 177.078125 L 201.8125 171.0625 C 215.925781 170.945312 230.078125 170.988281 243.964844 171.191406 C 244.523438 173.667969 246.734375 175.53125 249.382812 175.53125 C 252.449219 175.53125 254.941406 173.039062 254.941406 169.980469 C 254.941406 166.917969 252.449219 164.425781 249.382812 164.425781 C 246.742188 164.425781 244.542969 166.273438 243.976562 168.738281 C 230.082031 168.535156 215.925781 168.5 201.8125 168.613281 L 201.8125 158.03125 L 205.339844 161.84375 L 218.496094 161.84375 C 219.046875 164.027344 221.007812 165.652344 223.363281 165.652344 C 226.140625 165.652344 228.402344 163.394531 228.402344 160.617188 C 228.402344 157.84375 226.140625 155.582031 223.363281 155.582031 C 221.007812 155.582031 219.046875 157.210938 218.496094 159.390625 L 206.414062 159.390625 L 201.8125 154.414062 L 201.8125 140.679688 L 207.902344 137.808594 L 231.859375 146.699219 L 263.835938 131.632812 C 264.65625 132.683594 265.75 133.496094 267.035156 133.957031 C 267.820312 134.238281 268.636719 134.378906 269.445312 134.378906 C 270.484375 134.378906 271.519531 134.148438 272.484375 133.695312 C 276.035156 132.019531 277.566406 127.769531 275.890625 124.21875 C 275.078125 122.5 273.644531 121.195312 271.851562 120.554688 C 270.0625 119.910156 268.121094 120 266.402344 120.816406 C 264.679688 121.625 263.375 123.058594 262.734375 124.847656 C 262.269531 126.132812 262.203125 127.492188 262.496094 128.789062 L 231.714844 143.289062 L 211.886719 135.933594 L 230.59375 127.121094 L 235.960938 111.941406 L 260.207031 100.519531 C 261.570312 102.253906 263.625 103.277344 265.789062 103.277344 C 266.804688 103.277344 267.839844 103.058594 268.816406 102.597656 C 272.371094 100.925781 273.898438 96.671875 272.222656 93.121094 C 270.546875 89.570312 266.285156 88.046875 262.734375 89.71875 C 259.671875 91.164062 258.125 94.523438 258.824219 97.695312 L 233.429688 109.660156 L 228.0625 124.835938 L 201.8125 137.203125 L 201.8125 98.917969 C 203.398438 100.664062 204.96875 101.996094 206.296875 102.953125 C 207.011719 103.464844 213.351562 107.921875 217.257812 106.628906 C 219.523438 105.871094 220.75 103.421875 219.992188 101.160156 C 219.390625 99.347656 217.699219 98.199219 215.886719 98.199219 C 215.855469 98.199219 215.824219 98.199219 215.796875 98.203125 C 214.292969 97.742188 201.9375 93.25 201.8125 74.238281 L 201.8125 73.953125 C 201.8125 73.929688 201.808594 73.910156 201.808594 73.886719 C 201.855469 54.691406 219.335938 47.515625 228.378906 46.34375 L 225.597656 48.910156 L 225.597656 69.640625 C 222.179688 70.367188 219.605469 73.398438 219.605469 77.023438 C 219.605469 81.1875 223 84.574219 227.167969 84.574219 C 231.335938 84.574219 234.730469 81.1875 234.730469 77.023438 C 234.730469 73.398438 232.15625 70.367188 228.742188 69.640625 L 228.742188 50.289062 L 233.09375 46.28125 C 240.984375 46.925781 250.902344 50.953125 256.324219 58.160156 C 260.125 63.210938 261.160156 69.199219 259.480469 75.945312 L 254.457031 80.820312 C 252.742188 82.488281 252.703125 85.222656 254.371094 86.9375 C 255.21875 87.808594 256.347656 88.246094 257.476562 88.246094 C 258.5625 88.246094 259.652344 87.839844 260.492188 87.023438 L 265.296875 82.363281 C 265.722656 82.289062 266.171875 82.207031 266.664062 82.117188 C 274.902344 80.597656 284.144531 79.71875 289.671875 88.582031 C 295.664062 98.199219 294.136719 104.652344 293.476562 106.503906 L 289.023438 110.261719 C 287.199219 111.804688 286.964844 114.535156 288.511719 116.355469 C 289.367188 117.371094 290.589844 117.890625 291.820312 117.890625 C 292.804688 117.890625 293.796875 117.554688 294.609375 116.871094 L 298.617188 113.488281 C 303.128906 113.640625 317.210938 115.175781 322.324219 127.777344 L 284.816406 127.777344 L 263.582031 149.621094 L 263.582031 171.707031 C 259.855469 172.554688 257.058594 175.871094 257.058594 179.847656 C 257.058594 184.453125 260.816406 188.203125 265.429688 188.203125 C 270.042969 188.203125 273.800781 184.453125 273.800781 179.847656 C 273.800781 175.875 271.003906 172.554688 267.277344 171.707031 L 267.277344 151.117188 L 286.378906 131.464844 L 323.582031 131.464844 C 326.238281 141.066406 324.933594 150.453125 321.890625 157.464844 L 291.757812 157.464844 L 279.457031 171.644531 L 279.457031 185.214844 C 275.730469 186.058594 272.9375 189.378906 272.9375 193.351562 C 272.9375 197.957031 276.691406 201.710938 281.304688 201.710938 C 285.921875 201.710938 289.675781 197.957031 289.675781 193.351562 C 289.675781 189.378906 286.878906 186.058594 283.15625 185.214844 L 283.15625 173.023438 L 293.445312 161.152344 L 320.007812 161.152344 C 318.320312 163.96875 316.355469 166.160156 314.320312 167.527344 L 302 167.527344 C 299.609375 167.527344 297.671875 169.460938 297.671875 171.847656 C 297.671875 174.238281 299.609375 176.171875 302 176.171875 L 314.613281 176.171875 C 318.785156 178.175781 321.105469 180.628906 321.882812 187.179688 C 322.332031 198.3125 317.628906 203.050781 309.902344 207.074219 Z M 287.640625 217.824219 C 287.640625 214.394531 290.433594 211.605469 293.871094 211.605469 C 297.308594 211.605469 300.101562 214.394531 300.101562 217.824219 C 300.101562 221.257812 297.308594 224.046875 293.871094 224.046875 C 290.433594 224.046875 287.640625 221.257812 287.640625 217.824219 Z M 263.6875 220.1875 C 263.6875 217.984375 265.476562 216.199219 267.683594 216.199219 C 269.886719 216.199219 271.675781 217.984375 271.675781 220.1875 C 271.675781 222.386719 269.886719 224.175781 267.683594 224.175781 C 265.476562 224.175781 263.6875 222.386719 263.6875 220.1875 Z M 238.316406 217.367188 C 236.113281 217.367188 234.324219 215.578125 234.324219 213.378906 C 234.324219 211.175781 236.113281 209.390625 238.316406 209.390625 C 240.523438 209.390625 242.3125 211.175781 242.3125 213.378906 C 242.3125 215.578125 240.519531 217.367188 238.316406 217.367188 Z M 230.195312 297.152344 C 227.992188 297.152344 226.199219 295.367188 226.199219 293.164062 C 226.199219 290.964844 227.992188 289.175781 230.195312 289.175781 C 232.398438 289.175781 234.1875 290.964844 234.1875 293.164062 C 234.1875 295.367188 232.398438 297.152344 230.195312 297.152344 Z M 230.144531 271.628906 C 230.144531 269.335938 232.011719 267.46875 234.308594 267.46875 C 236.609375 267.46875 238.476562 269.335938 238.476562 271.628906 C 238.476562 273.921875 236.609375 275.789062 234.308594 275.789062 C 232.011719 275.789062 230.144531 273.921875 230.144531 271.628906 Z M 212.671875 238.1875 C 212.671875 235.492188 214.867188 233.300781 217.5625 233.300781 C 220.261719 233.300781 222.453125 235.492188 222.453125 238.1875 C 222.453125 240.878906 220.261719 243.070312 217.5625 243.070312 C 214.867188 243.070312 212.671875 240.878906 212.671875 238.1875 Z M 216.019531 200.917969 C 217.730469 200.917969 219.125 202.308594 219.125 204.019531 C 219.125 205.726562 217.730469 207.117188 216.019531 207.117188 C 214.308594 207.117188 212.914062 205.726562 212.914062 204.019531 C 212.914062 202.308594 214.308594 200.917969 216.019531 200.917969 Z M 246.277344 183.3125 C 246.277344 181.605469 247.671875 180.214844 249.382812 180.214844 C 251.09375 180.214844 252.488281 181.605469 252.488281 183.3125 C 252.488281 185.023438 251.09375 186.414062 249.382812 186.414062 C 247.671875 186.414062 246.277344 185.023438 246.277344 183.3125 Z M 246.277344 169.980469 C 246.277344 168.269531 247.671875 166.878906 249.382812 166.878906 C 251.09375 166.878906 252.488281 168.269531 252.488281 169.980469 C 252.488281 171.6875 251.09375 173.082031 249.382812 173.082031 C 247.671875 173.082031 246.277344 171.6875 246.277344 169.980469 Z M 220.777344 160.617188 C 220.777344 159.195312 221.941406 158.035156 223.363281 158.035156 C 224.789062 158.035156 225.949219 159.195312 225.949219 160.617188 C 225.949219 162.042969 224.789062 163.203125 223.363281 163.203125 C 221.941406 163.203125 220.777344 162.042969 220.777344 160.617188 Z M 265.695312 125.910156 C 266.054688 124.914062 266.785156 124.109375 267.746094 123.65625 C 268.285156 123.40625 268.859375 123.277344 269.4375 123.277344 C 269.894531 123.277344 270.347656 123.351562 270.789062 123.511719 C 271.789062 123.871094 272.589844 124.597656 273.042969 125.558594 C 273.980469 127.539062 273.125 129.914062 271.140625 130.851562 C 270.179688 131.300781 269.101562 131.359375 268.097656 130.996094 C 267.097656 130.636719 266.296875 129.910156 265.84375 128.949219 C 265.386719 127.988281 265.335938 126.910156 265.695312 125.910156 Z M 264.074219 92.5625 C 264.621094 92.304688 265.199219 92.183594 265.769531 92.183594 C 267.261719 92.183594 268.695312 93.027344 269.375 94.460938 C 270.3125 96.445312 269.457031 98.820312 267.472656 99.757812 C 265.488281 100.691406 263.109375 99.839844 262.171875 97.855469 C 261.238281 95.875 262.089844 93.5 264.074219 92.5625 Z M 227.167969 72.617188 C 229.601562 72.617188 231.582031 74.59375 231.582031 77.023438 C 231.582031 79.453125 229.601562 81.429688 227.167969 81.429688 C 224.734375 81.429688 222.753906 79.453125 222.753906 77.023438 C 222.753906 74.59375 224.734375 72.617188 227.167969 72.617188 Z M 265.429688 175.175781 C 268.003906 175.175781 270.101562 177.269531 270.101562 179.847656 C 270.101562 182.417969 268.003906 184.511719 265.429688 184.511719 C 262.851562 184.511719 260.753906 182.417969 260.753906 179.847656 C 260.753906 177.269531 262.851562 175.175781 265.429688 175.175781 Z M 281.304688 188.683594 C 283.878906 188.683594 285.976562 190.777344 285.976562 193.351562 C 285.976562 195.921875 283.878906 198.015625 281.304688 198.015625 C 278.726562 198.015625 276.632812 195.921875 276.632812 193.351562 C 276.632812 190.777344 278.726562 188.683594 281.304688 188.683594 Z M 281.304688 188.683594 " fill-opacity="1" fill-rule="nonzero"/></g></svg>