<svg xmlns="http://www.w3.org/2000/svg" xmlns:xlink="http://www.w3.org/1999/xlink" width="500" zoomAndPan="magnify" viewBox="0 0 375 374.999991" height="500" preserveAspectRatio="xMidYMid meet" version="1.0"><defs><clipPath id="35d497af8b"><path d="M 39 57.1875 L 336 57.1875 L 336 318 L 39 318 Z M 39 57.1875 " clip-rule="nonzero"/></clipPath></defs><g clip-path="url(#35d497af8b)"><path fill="#ffffff" d="M 290.671875 317.785156 L 83.996094 317.785156 C 82.03125 317.78125 80.078125 317.652344 78.132812 317.390625 C 76.1875 317.128906 74.269531 316.742188 72.375 316.226562 C 70.480469 315.710938 68.628906 315.074219 66.820312 314.316406 C 65.007812 313.554688 63.257812 312.679688 61.5625 311.6875 C 59.867188 310.695312 58.246094 309.597656 56.695312 308.390625 C 55.148438 307.183594 53.683594 305.878906 52.308594 304.480469 C 50.929688 303.078125 49.652344 301.59375 48.46875 300.023438 C 47.289062 298.453125 46.214844 296.8125 45.253906 295.101562 C 44.289062 293.390625 43.441406 291.621094 42.710938 289.796875 C 41.976562 287.972656 41.371094 286.109375 40.886719 284.207031 C 40.402344 282.300781 40.042969 280.371094 39.8125 278.421875 C 39.582031 276.46875 39.480469 274.511719 39.507812 272.546875 C 39.539062 270.582031 39.695312 268.625 39.980469 266.679688 C 40.269531 264.738281 40.679688 262.820312 41.21875 260.929688 C 41.757812 259.039062 42.421875 257.195312 43.203125 255.390625 C 43.988281 253.589844 44.886719 251.847656 45.898438 250.164062 L 149.253906 79.101562 C 149.746094 78.285156 150.261719 77.484375 150.808594 76.703125 C 151.351562 75.917969 151.917969 75.152344 152.511719 74.40625 C 153.105469 73.65625 153.722656 72.929688 154.363281 72.222656 C 155 71.515625 155.664062 70.828125 156.347656 70.164062 C 157.03125 69.5 157.734375 68.855469 158.460938 68.238281 C 159.183594 67.617188 159.929688 67.023438 160.691406 66.449219 C 161.457031 65.878906 162.234375 65.332031 163.035156 64.8125 C 163.832031 64.289062 164.644531 63.792969 165.476562 63.324219 C 166.304688 62.855469 167.152344 62.414062 168.007812 62 C 168.867188 61.585938 169.738281 61.199219 170.621094 60.839844 C 171.503906 60.480469 172.398438 60.148438 173.300781 59.847656 C 174.207031 59.546875 175.121094 59.277344 176.042969 59.035156 C 176.964844 58.789062 177.890625 58.578125 178.828125 58.394531 C 179.761719 58.210938 180.703125 58.058594 181.648438 57.9375 C 182.59375 57.816406 183.542969 57.722656 184.492188 57.664062 C 185.445312 57.601562 186.394531 57.570312 187.347656 57.570312 C 188.300781 57.570312 189.253906 57.601562 190.207031 57.664062 C 191.15625 57.722656 192.105469 57.816406 193.050781 57.9375 C 193.996094 58.058594 194.933594 58.210938 195.871094 58.394531 C 196.804688 58.578125 197.734375 58.789062 198.65625 59.035156 C 199.578125 59.277344 200.492188 59.546875 201.394531 59.847656 C 202.300781 60.148438 203.195312 60.480469 204.078125 60.839844 C 204.960938 61.199219 205.832031 61.585938 206.6875 62 C 207.546875 62.414062 208.390625 62.855469 209.222656 63.324219 C 210.050781 63.792969 210.867188 64.289062 211.664062 64.8125 C 212.460938 65.332031 213.242188 65.878906 214.007812 66.449219 C 214.769531 67.023438 215.511719 67.617188 216.238281 68.238281 C 216.964844 68.855469 217.667969 69.5 218.351562 70.164062 C 219.035156 70.828125 219.695312 71.515625 220.335938 72.222656 C 220.976562 72.929688 221.59375 73.65625 222.183594 74.40625 C 222.777344 75.152344 223.347656 75.917969 223.890625 76.703125 C 224.433594 77.484375 224.953125 78.285156 225.445312 79.101562 L 328.738281 250.132812 C 329.757812 251.816406 330.664062 253.558594 331.453125 255.359375 C 332.242188 257.160156 332.910156 259.007812 333.453125 260.898438 C 334 262.789062 334.417969 264.707031 334.707031 266.652344 C 335 268.597656 335.160156 270.554688 335.191406 272.523438 C 335.222656 274.492188 335.125 276.453125 334.898438 278.40625 C 334.671875 280.359375 334.316406 282.292969 333.832031 284.199219 C 333.347656 286.105469 332.742188 287.972656 332.011719 289.800781 C 331.28125 291.628906 330.433594 293.398438 329.46875 295.113281 C 328.503906 296.828125 327.433594 298.46875 326.25 300.042969 C 325.066406 301.613281 323.785156 303.101562 322.40625 304.5 C 321.027344 305.902344 319.5625 307.207031 318.011719 308.414062 C 316.460938 309.621094 314.835938 310.722656 313.140625 311.714844 C 311.441406 312.707031 309.6875 313.582031 307.875 314.339844 C 306.0625 315.097656 304.207031 315.734375 302.308594 316.246094 C 300.414062 316.757812 298.488281 317.144531 296.542969 317.402344 C 294.59375 317.660156 292.636719 317.785156 290.671875 317.785156 Z M 187.347656 63.640625 C 185.699219 63.636719 184.054688 63.734375 182.417969 63.941406 C 180.78125 64.148438 179.164062 64.460938 177.566406 64.875 C 175.96875 65.292969 174.402344 65.808594 172.875 66.429688 C 171.34375 67.050781 169.859375 67.765625 168.421875 68.578125 C 166.984375 69.390625 165.605469 70.292969 164.285156 71.28125 C 162.964844 72.273438 161.714844 73.347656 160.53125 74.5 C 159.351562 75.652344 158.246094 76.878906 157.222656 78.175781 C 156.199219 79.472656 155.265625 80.832031 154.417969 82.25 L 51.066406 253.308594 C 50.191406 254.765625 49.414062 256.269531 48.738281 257.828125 C 48.0625 259.386719 47.492188 260.980469 47.027344 262.613281 C 46.5625 264.246094 46.207031 265.902344 45.960938 267.582031 C 45.714844 269.261719 45.578125 270.953125 45.554688 272.648438 C 45.53125 274.347656 45.621094 276.039062 45.820312 277.726562 C 46.019531 279.410156 46.328125 281.078125 46.75 282.722656 C 47.167969 284.367188 47.695312 285.976562 48.324219 287.554688 C 48.957031 289.128906 49.691406 290.65625 50.523438 292.136719 C 51.355469 293.613281 52.285156 295.03125 53.304688 296.386719 C 54.324219 297.742188 55.429688 299.027344 56.621094 300.234375 C 57.808594 301.445312 59.074219 302.570312 60.414062 303.613281 C 61.75 304.65625 63.152344 305.605469 64.617188 306.464844 C 66.078125 307.320312 67.59375 308.078125 69.15625 308.734375 C 70.71875 309.390625 72.320312 309.941406 73.957031 310.386719 C 75.59375 310.832031 77.25 311.167969 78.929688 311.390625 C 80.613281 311.617188 82.300781 311.730469 83.996094 311.734375 L 290.671875 311.734375 C 292.371094 311.734375 294.0625 311.625 295.742188 311.402344 C 297.425781 311.179688 299.089844 310.847656 300.726562 310.40625 C 302.367188 309.960938 303.96875 309.414062 305.535156 308.757812 C 307.101562 308.101562 308.621094 307.347656 310.085938 306.488281 C 311.550781 305.632812 312.957031 304.683594 314.296875 303.640625 C 315.636719 302.597656 316.902344 301.46875 318.097656 300.257812 C 319.289062 299.046875 320.394531 297.761719 321.414062 296.40625 C 322.4375 295.046875 323.363281 293.625 324.199219 292.144531 C 325.03125 290.664062 325.765625 289.132812 326.394531 287.554688 C 327.027344 285.976562 327.550781 284.363281 327.96875 282.714844 C 328.386719 281.070312 328.695312 279.398438 328.890625 277.710938 C 329.089844 276.023438 329.171875 274.328125 329.144531 272.628906 C 329.117188 270.929688 328.980469 269.238281 328.726562 267.554688 C 328.476562 265.875 328.117188 264.214844 327.644531 262.582031 C 327.175781 260.949219 326.597656 259.351562 325.917969 257.796875 C 325.234375 256.238281 324.453125 254.734375 323.574219 253.28125 L 220.28125 82.25 C 219.429688 80.832031 218.496094 79.472656 217.472656 78.175781 C 216.449219 76.882812 215.347656 75.65625 214.164062 74.503906 C 212.980469 73.347656 211.730469 72.277344 210.410156 71.285156 C 209.089844 70.296875 207.710938 69.394531 206.273438 68.582031 C 204.835938 67.769531 203.351562 67.054688 201.820312 66.433594 C 200.292969 65.8125 198.730469 65.296875 197.132812 64.878906 C 195.535156 64.460938 193.917969 64.152344 192.28125 63.945312 C 190.644531 63.738281 189 63.636719 187.347656 63.640625 Z M 187.347656 63.640625 " fill-opacity="1" fill-rule="nonzero"/></g><path fill="#ffffff" d="M 290.671875 292.855469 L 83.996094 292.855469 C 82.257812 292.851562 80.550781 292.625 78.875 292.167969 C 77.195312 291.714844 75.605469 291.046875 74.105469 290.167969 C 72.605469 289.292969 71.246094 288.230469 70.027344 286.992188 C 68.808594 285.75 67.773438 284.375 66.921875 282.855469 C 66.066406 281.339844 65.425781 279.738281 65 278.054688 C 64.570312 276.367188 64.371094 274.652344 64.398438 272.914062 C 64.425781 271.171875 64.679688 269.46875 65.160156 267.792969 C 65.636719 266.121094 66.328125 264.542969 67.226562 263.050781 L 170.550781 92.019531 C 170.769531 91.660156 170.996094 91.308594 171.234375 90.960938 C 171.472656 90.613281 171.722656 90.277344 171.984375 89.945312 C 172.246094 89.617188 172.515625 89.296875 172.796875 88.984375 C 173.078125 88.671875 173.371094 88.367188 173.671875 88.074219 C 173.972656 87.78125 174.28125 87.496094 174.601562 87.222656 C 174.921875 86.949219 175.25 86.6875 175.585938 86.433594 C 175.921875 86.179688 176.265625 85.941406 176.617188 85.710938 C 176.96875 85.480469 177.328125 85.261719 177.691406 85.054688 C 178.058594 84.847656 178.429688 84.652344 178.808594 84.46875 C 179.1875 84.285156 179.570312 84.113281 179.960938 83.953125 C 180.347656 83.796875 180.742188 83.652344 181.140625 83.515625 C 181.539062 83.382812 181.941406 83.265625 182.347656 83.15625 C 182.753906 83.050781 183.164062 82.957031 183.578125 82.875 C 183.988281 82.792969 184.402344 82.726562 184.820312 82.671875 C 185.238281 82.617188 185.65625 82.578125 186.074219 82.550781 C 186.492188 82.523438 186.914062 82.511719 187.332031 82.511719 C 187.753906 82.511719 188.171875 82.523438 188.59375 82.550781 C 189.011719 82.578125 189.429688 82.617188 189.847656 82.671875 C 190.265625 82.726562 190.679688 82.792969 191.089844 82.875 C 191.503906 82.957031 191.914062 83.050781 192.320312 83.15625 C 192.726562 83.265625 193.128906 83.382812 193.527344 83.515625 C 193.925781 83.652344 194.320312 83.796875 194.707031 83.953125 C 195.097656 84.113281 195.480469 84.285156 195.859375 84.46875 C 196.238281 84.652344 196.609375 84.847656 196.976562 85.054688 C 197.339844 85.261719 197.699219 85.480469 198.050781 85.710938 C 198.402344 85.941406 198.746094 86.179688 199.082031 86.433594 C 199.417969 86.6875 199.746094 86.949219 200.066406 87.222656 C 200.386719 87.496094 200.695312 87.78125 200.996094 88.074219 C 201.296875 88.367188 201.589844 88.671875 201.871094 88.984375 C 202.152344 89.296875 202.421875 89.617188 202.683594 89.945312 C 202.945312 90.277344 203.195312 90.613281 203.433594 90.960938 C 203.671875 91.308594 203.898438 91.660156 204.117188 92.019531 L 307.441406 263.050781 C 308.339844 264.542969 309.027344 266.121094 309.507812 267.792969 C 309.988281 269.46875 310.242188 271.171875 310.269531 272.914062 C 310.296875 274.652344 310.097656 276.367188 309.667969 278.054688 C 309.242188 279.738281 308.601562 281.339844 307.746094 282.855469 C 306.894531 284.375 305.859375 285.75 304.640625 286.992188 C 303.421875 288.230469 302.058594 289.292969 300.558594 290.167969 C 299.058594 291.046875 297.472656 291.714844 295.792969 292.167969 C 294.117188 292.625 292.410156 292.851562 290.671875 292.855469 Z M 187.347656 88.574219 C 186.175781 88.566406 185.023438 88.710938 183.890625 89.007812 C 182.753906 89.304688 181.675781 89.742188 180.65625 90.320312 C 179.636719 90.898438 178.707031 91.597656 177.871094 92.421875 C 177.035156 93.242188 176.316406 94.15625 175.71875 95.167969 L 72.546875 266.167969 C 71.925781 267.199219 71.449219 268.292969 71.121094 269.449219 C 70.792969 270.609375 70.617188 271.789062 70.601562 272.992188 C 70.582031 274.195312 70.722656 275.378906 71.019531 276.546875 C 71.316406 277.710938 71.757812 278.820312 72.347656 279.867188 C 72.9375 280.917969 73.652344 281.871094 74.496094 282.726562 C 75.335938 283.585938 76.277344 284.320312 77.3125 284.929688 C 78.347656 285.539062 79.445312 286.003906 80.605469 286.320312 C 81.765625 286.636719 82.945312 286.796875 84.148438 286.800781 L 290.671875 286.800781 C 291.871094 286.792969 293.046875 286.625 294.199219 286.304688 C 295.355469 285.980469 296.449219 285.515625 297.480469 284.902344 C 298.507812 284.289062 299.441406 283.554688 300.277344 282.691406 C 301.113281 281.832031 301.824219 280.878906 302.40625 279.832031 C 302.992188 278.78125 303.425781 277.675781 303.71875 276.511719 C 304.007812 275.347656 304.140625 274.164062 304.121094 272.964844 C 304.097656 271.765625 303.917969 270.589844 303.585938 269.4375 C 303.253906 268.285156 302.773438 267.195312 302.152344 266.167969 L 198.949219 95.167969 C 198.355469 94.160156 197.640625 93.246094 196.804688 92.421875 C 195.96875 91.601562 195.042969 90.902344 194.027344 90.324219 C 193.007812 89.746094 191.933594 89.308594 190.800781 89.011719 C 189.671875 88.714844 188.519531 88.566406 187.347656 88.574219 Z M 187.347656 88.574219 " fill-opacity="1" fill-rule="nonzero"/><path fill="#ffffff" d="M 187.347656 233.070312 C 186.640625 233.070312 185.9375 233.003906 185.238281 232.871094 C 184.542969 232.738281 183.863281 232.539062 183.203125 232.273438 C 182.546875 232.011719 181.917969 231.6875 181.320312 231.304688 C 180.722656 230.921875 180.167969 230.484375 179.652344 229.996094 C 179.136719 229.503906 178.675781 228.972656 178.261719 228.390625 C 177.851562 227.8125 177.496094 227.203125 177.199219 226.554688 C 176.90625 225.910156 176.671875 225.242188 176.503906 224.550781 C 176.335938 223.859375 176.234375 223.160156 176.199219 222.449219 L 173 154.738281 C 172.898438 152.765625 173.199219 150.851562 173.890625 149 C 174.582031 147.148438 175.617188 145.511719 176.988281 144.089844 C 178.332031 142.660156 179.902344 141.5625 181.707031 140.789062 C 183.507812 140.015625 185.390625 139.632812 187.347656 139.644531 C 188.292969 139.644531 189.226562 139.738281 190.148438 139.925781 C 191.074219 140.109375 191.972656 140.386719 192.84375 140.746094 C 193.714844 141.109375 194.539062 141.554688 195.324219 142.082031 C 196.105469 142.605469 196.832031 143.203125 197.496094 143.871094 C 198.164062 144.539062 198.757812 145.265625 199.28125 146.050781 C 199.804688 146.839844 200.246094 147.667969 200.609375 148.539062 C 200.96875 149.414062 201.238281 150.3125 201.421875 151.238281 C 201.609375 152.164062 201.699219 153.101562 201.699219 154.042969 L 201.699219 154.589844 L 198.464844 222.449219 C 198.433594 223.160156 198.335938 223.859375 198.167969 224.550781 C 198 225.238281 197.773438 225.90625 197.476562 226.554688 C 197.183594 227.199219 196.832031 227.8125 196.421875 228.390625 C 196.007812 228.96875 195.546875 229.503906 195.035156 229.992188 C 194.519531 230.484375 193.964844 230.917969 193.371094 231.304688 C 192.773438 231.6875 192.144531 232.011719 191.488281 232.273438 C 190.828125 232.539062 190.152344 232.738281 189.457031 232.871094 C 188.761719 233.003906 188.058594 233.070312 187.347656 233.070312 Z M 187.347656 145.695312 C 186.785156 145.691406 186.230469 145.75 185.679688 145.863281 C 185.128906 145.972656 184.59375 146.140625 184.074219 146.363281 C 183.558594 146.582031 183.070312 146.855469 182.605469 147.175781 C 182.144531 147.496094 181.71875 147.859375 181.332031 148.269531 C 180.941406 148.675781 180.597656 149.117188 180.300781 149.59375 C 180 150.070312 179.753906 150.574219 179.558594 151.101562 C 179.359375 151.628906 179.21875 152.171875 179.132812 152.726562 C 179.042969 153.285156 179.015625 153.84375 179.039062 154.40625 L 182.242188 222.117188 C 182.269531 222.4375 182.320312 222.75 182.40625 223.058594 C 182.488281 223.367188 182.597656 223.664062 182.738281 223.949219 C 182.875 224.238281 183.039062 224.511719 183.230469 224.765625 C 183.417969 225.023438 183.632812 225.257812 183.863281 225.476562 C 184.097656 225.691406 184.351562 225.886719 184.621094 226.054688 C 184.890625 226.226562 185.175781 226.367188 185.472656 226.484375 C 185.769531 226.601562 186.074219 226.691406 186.386719 226.75 C 186.699219 226.808594 187.015625 226.835938 187.332031 226.835938 C 187.652344 226.835938 187.96875 226.808594 188.28125 226.75 C 188.59375 226.691406 188.898438 226.601562 189.195312 226.484375 C 189.492188 226.367188 189.777344 226.226562 190.046875 226.054688 C 190.316406 225.886719 190.570312 225.691406 190.800781 225.476562 C 191.035156 225.257812 191.25 225.023438 191.4375 224.765625 C 191.628906 224.511719 191.792969 224.238281 191.929688 223.949219 C 192.070312 223.664062 192.179688 223.367188 192.261719 223.058594 C 192.347656 222.75 192.398438 222.4375 192.425781 222.117188 L 195.65625 154.40625 L 195.65625 154.015625 C 195.65625 153.46875 195.601562 152.925781 195.492188 152.394531 C 195.382812 151.859375 195.226562 151.339844 195.015625 150.835938 C 194.808594 150.332031 194.550781 149.851562 194.246094 149.398438 C 193.945312 148.945312 193.601562 148.523438 193.214844 148.140625 C 192.828125 147.753906 192.410156 147.410156 191.957031 147.105469 C 191.503906 146.800781 191.027344 146.542969 190.523438 146.335938 C 190.019531 146.125 189.5 145.964844 188.96875 145.859375 C 188.433594 145.75 187.894531 145.695312 187.347656 145.695312 Z M 187.347656 145.695312 " fill-opacity="1" fill-rule="nonzero"/><path fill="#ffffff" d="M 187.347656 262.570312 C 186.554688 262.570312 185.769531 262.492188 184.992188 262.335938 C 184.214844 262.179688 183.457031 261.953125 182.722656 261.648438 C 181.992188 261.34375 181.292969 260.96875 180.636719 260.527344 C 179.976562 260.085938 179.363281 259.585938 178.804688 259.023438 C 178.242188 258.460938 177.742188 257.851562 177.300781 257.191406 C 176.859375 256.527344 176.488281 255.832031 176.183594 255.097656 C 175.878906 254.363281 175.652344 253.605469 175.496094 252.828125 C 175.339844 252.046875 175.265625 251.261719 175.265625 250.464844 C 175.265625 249.671875 175.339844 248.886719 175.496094 248.105469 C 175.652344 247.324219 175.878906 246.570312 176.183594 245.835938 C 176.488281 245.101562 176.859375 244.402344 177.300781 243.742188 C 177.742188 243.082031 178.242188 242.472656 178.804688 241.910156 C 179.363281 241.347656 179.976562 240.84375 180.636719 240.402344 C 181.292969 239.960938 181.992188 239.589844 182.722656 239.285156 C 183.457031 238.980469 184.214844 238.753906 184.992188 238.597656 C 185.769531 238.441406 186.554688 238.363281 187.347656 238.363281 C 188.140625 238.363281 188.929688 238.441406 189.707031 238.597656 C 190.484375 238.753906 191.242188 238.980469 191.972656 239.285156 C 192.707031 239.589844 193.402344 239.960938 194.0625 240.402344 C 194.722656 240.84375 195.332031 241.347656 195.894531 241.910156 C 196.457031 242.472656 196.957031 243.082031 197.398438 243.742188 C 197.835938 244.402344 198.210938 245.101562 198.511719 245.835938 C 198.816406 246.570312 199.046875 247.324219 199.203125 248.105469 C 199.355469 248.886719 199.433594 249.671875 199.433594 250.464844 C 199.433594 251.261719 199.355469 252.046875 199.203125 252.828125 C 199.046875 253.605469 198.816406 254.363281 198.511719 255.097656 C 198.210938 255.832031 197.835938 256.527344 197.398438 257.191406 C 196.957031 257.851562 196.457031 258.460938 195.894531 259.023438 C 195.332031 259.585938 194.722656 260.085938 194.0625 260.527344 C 193.402344 260.96875 192.707031 261.34375 191.972656 261.648438 C 191.242188 261.953125 190.484375 262.179688 189.707031 262.335938 C 188.929688 262.492188 188.140625 262.570312 187.347656 262.570312 Z M 187.347656 244.414062 C 186.953125 244.414062 186.558594 244.453125 186.171875 244.53125 C 185.78125 244.609375 185.402344 244.722656 185.035156 244.875 C 184.671875 245.027344 184.320312 245.214844 183.992188 245.433594 C 183.664062 245.65625 183.355469 245.90625 183.078125 246.1875 C 182.796875 246.46875 182.546875 246.773438 182.324219 247.105469 C 182.105469 247.433594 181.917969 247.785156 181.765625 248.152344 C 181.613281 248.519531 181.5 248.894531 181.421875 249.285156 C 181.34375 249.675781 181.304688 250.070312 181.304688 250.464844 C 181.304688 250.863281 181.34375 251.257812 181.421875 251.648438 C 181.5 252.035156 181.613281 252.414062 181.765625 252.78125 C 181.917969 253.148438 182.105469 253.496094 182.324219 253.828125 C 182.546875 254.160156 182.796875 254.464844 183.078125 254.746094 C 183.355469 255.027344 183.664062 255.277344 183.992188 255.496094 C 184.320312 255.71875 184.671875 255.90625 185.035156 256.058594 C 185.402344 256.207031 185.78125 256.324219 186.171875 256.402344 C 186.558594 256.480469 186.953125 256.515625 187.347656 256.515625 C 187.746094 256.515625 188.136719 256.480469 188.527344 256.402344 C 188.917969 256.324219 189.292969 256.207031 189.660156 256.058594 C 190.027344 255.90625 190.375 255.71875 190.707031 255.496094 C 191.035156 255.277344 191.339844 255.027344 191.621094 254.746094 C 191.902344 254.464844 192.152344 254.160156 192.371094 253.828125 C 192.59375 253.496094 192.78125 253.148438 192.929688 252.78125 C 193.082031 252.414062 193.199219 252.035156 193.273438 251.648438 C 193.351562 251.257812 193.390625 250.863281 193.390625 250.464844 C 193.390625 250.070312 193.351562 249.675781 193.273438 249.285156 C 193.199219 248.894531 193.082031 248.519531 192.929688 248.152344 C 192.78125 247.785156 192.59375 247.433594 192.371094 247.105469 C 192.152344 246.773438 191.902344 246.46875 191.621094 246.1875 C 191.339844 245.90625 191.035156 245.65625 190.707031 245.433594 C 190.375 245.214844 190.027344 245.027344 189.660156 244.875 C 189.292969 244.722656 188.917969 244.609375 188.527344 244.53125 C 188.136719 244.453125 187.746094 244.414062 187.347656 244.414062 Z M 187.347656 244.414062 " fill-opacity="1" fill-rule="nonzero"/><path fill="#ffffff" d="M 316.140625 188.957031 C 315.617188 188.957031 315.125 188.824219 314.667969 188.566406 C 314.210938 188.308594 313.84375 187.953125 313.574219 187.507812 L 268.921875 113.652344 C 268.785156 113.484375 268.671875 113.300781 268.578125 113.105469 C 268.484375 112.914062 268.410156 112.710938 268.359375 112.5 C 268.308594 112.289062 268.277344 112.078125 268.273438 111.859375 C 268.265625 111.644531 268.285156 111.429688 268.324219 111.21875 C 268.363281 111.003906 268.425781 110.800781 268.511719 110.601562 C 268.59375 110.402344 268.699219 110.214844 268.824219 110.035156 C 268.949219 109.859375 269.089844 109.699219 269.25 109.550781 C 269.410156 109.40625 269.582031 109.277344 269.769531 109.167969 C 269.953125 109.058594 270.148438 108.972656 270.355469 108.90625 C 270.5625 108.835938 270.769531 108.792969 270.984375 108.769531 C 271.199219 108.75 271.414062 108.75 271.628906 108.773438 C 271.84375 108.796875 272.054688 108.84375 272.257812 108.914062 C 272.464844 108.984375 272.65625 109.074219 272.84375 109.183594 C 273.027344 109.296875 273.199219 109.425781 273.359375 109.574219 C 273.515625 109.71875 273.65625 109.882812 273.777344 110.0625 C 273.902344 110.238281 274.003906 110.429688 274.085938 110.628906 L 318.738281 184.390625 C 318.945312 184.734375 319.078125 185.101562 319.136719 185.5 C 319.195312 185.894531 319.175781 186.285156 319.078125 186.675781 C 318.984375 187.0625 318.816406 187.417969 318.578125 187.742188 C 318.34375 188.0625 318.054688 188.328125 317.710938 188.535156 C 317.226562 188.824219 316.703125 188.964844 316.140625 188.957031 Z M 316.140625 188.957031 " fill-opacity="1" fill-rule="nonzero"/><path fill="#ffffff" d="M 325.988281 157.039062 C 325.460938 157.042969 324.960938 156.914062 324.5 156.65625 C 324.035156 156.398438 323.667969 156.039062 323.390625 155.585938 L 303.722656 123.03125 C 303.570312 122.691406 303.480469 122.332031 303.460938 121.960938 C 303.4375 121.585938 303.484375 121.222656 303.597656 120.863281 C 303.714844 120.507812 303.886719 120.183594 304.121094 119.890625 C 304.355469 119.597656 304.636719 119.359375 304.957031 119.171875 C 305.28125 118.984375 305.628906 118.859375 305.996094 118.800781 C 306.367188 118.738281 306.734375 118.75 307.097656 118.824219 C 307.464844 118.902344 307.804688 119.042969 308.121094 119.246094 C 308.433594 119.449219 308.699219 119.703125 308.917969 120.007812 L 328.558594 152.5625 C 328.769531 152.902344 328.90625 153.273438 328.972656 153.671875 C 329.035156 154.070312 329.019531 154.464844 328.925781 154.855469 C 328.832031 155.25 328.667969 155.609375 328.429688 155.933594 C 328.195312 156.257812 327.902344 156.527344 327.558594 156.738281 C 327.0625 156.96875 326.539062 157.070312 325.988281 157.039062 Z M 325.988281 157.039062 " fill-opacity="1" fill-rule="nonzero"/><path fill="#ffffff" d="M 58.558594 188.957031 C 57.996094 188.964844 57.46875 188.824219 56.988281 188.535156 C 56.644531 188.328125 56.355469 188.0625 56.117188 187.742188 C 55.878906 187.417969 55.714844 187.0625 55.617188 186.675781 C 55.523438 186.285156 55.503906 185.894531 55.5625 185.5 C 55.621094 185.101562 55.753906 184.734375 55.960938 184.390625 L 100.582031 110.507812 C 100.664062 110.308594 100.765625 110.117188 100.890625 109.941406 C 101.011719 109.761719 101.152344 109.597656 101.308594 109.453125 C 101.46875 109.304688 101.640625 109.175781 101.824219 109.0625 C 102.007812 108.953125 102.203125 108.863281 102.410156 108.792969 C 102.613281 108.722656 102.824219 108.675781 103.039062 108.652344 C 103.253906 108.628906 103.46875 108.628906 103.683594 108.648438 C 103.898438 108.671875 104.105469 108.71875 104.3125 108.785156 C 104.519531 108.851562 104.714844 108.9375 104.898438 109.046875 C 105.085938 109.15625 105.257812 109.285156 105.417969 109.429688 C 105.578125 109.578125 105.71875 109.738281 105.84375 109.917969 C 105.96875 110.09375 106.070312 110.28125 106.15625 110.480469 C 106.242188 110.679688 106.304688 110.882812 106.34375 111.097656 C 106.382812 111.308594 106.402344 111.523438 106.394531 111.738281 C 106.390625 111.957031 106.359375 112.167969 106.308594 112.378906 C 106.257812 112.589844 106.183594 112.792969 106.089844 112.984375 C 105.996094 113.179688 105.882812 113.363281 105.746094 113.53125 L 61.125 187.507812 C 60.851562 187.953125 60.488281 188.308594 60.03125 188.566406 C 59.574219 188.824219 59.082031 188.957031 58.558594 188.957031 Z M 58.558594 188.957031 " fill-opacity="1" fill-rule="nonzero"/><path fill="#ffffff" d="M 48.707031 157.039062 C 48.148438 157.03125 47.625 156.890625 47.136719 156.617188 C 46.792969 156.40625 46.503906 156.136719 46.265625 155.8125 C 46.03125 155.488281 45.863281 155.128906 45.769531 154.734375 C 45.679688 154.34375 45.664062 153.949219 45.726562 153.550781 C 45.789062 153.152344 45.929688 152.78125 46.140625 152.441406 L 65.777344 119.886719 C 65.996094 119.582031 66.265625 119.328125 66.578125 119.125 C 66.890625 118.921875 67.230469 118.78125 67.597656 118.707031 C 67.964844 118.628906 68.332031 118.617188 68.699219 118.679688 C 69.070312 118.738281 69.417969 118.863281 69.738281 119.050781 C 70.0625 119.238281 70.34375 119.476562 70.574219 119.769531 C 70.808594 120.0625 70.984375 120.386719 71.097656 120.742188 C 71.210938 121.101562 71.257812 121.464844 71.238281 121.839844 C 71.214844 122.210938 71.128906 122.570312 70.972656 122.910156 L 51.398438 155.585938 C 51.113281 156.054688 50.730469 156.417969 50.25 156.679688 C 49.769531 156.9375 49.253906 157.058594 48.707031 157.039062 Z M 48.707031 157.039062 " fill-opacity="1" fill-rule="nonzero"/></svg>