<svg xmlns="http://www.w3.org/2000/svg" xmlns:xlink="http://www.w3.org/1999/xlink" width="500" zoomAndPan="magnify" viewBox="0 0 375 374.999991" height="500" preserveAspectRatio="xMidYMid meet" version="1.0"><defs><clipPath id="ebccd5f89e"><path d="M 61.5 40 L 313.5 40 L 313.5 336 L 61.5 336 Z M 61.5 40 " clip-rule="nonzero"/></clipPath></defs><g clip-path="url(#ebccd5f89e)"><path fill="#ffffff" d="M 185.15625 334.714844 C 186.71875 335.101562 188.28125 335.101562 189.84375 334.714844 C 192.035156 334.171875 194.210938 333.582031 196.375 332.949219 C 198.539062 332.3125 200.6875 331.632812 202.824219 330.910156 C 204.960938 330.1875 207.082031 329.417969 209.1875 328.605469 C 211.289062 327.792969 213.375 326.9375 215.445312 326.039062 C 217.511719 325.140625 219.5625 324.199219 221.59375 323.214844 C 223.621094 322.234375 225.628906 321.207031 227.617188 320.140625 C 229.605469 319.074219 231.566406 317.964844 233.507812 316.816406 C 235.449219 315.667969 237.367188 314.480469 239.257812 313.253906 C 241.148438 312.023438 243.015625 310.757812 244.855469 309.453125 C 246.695312 308.148438 248.503906 306.804688 250.289062 305.421875 C 252.070312 304.042969 253.824219 302.625 255.550781 301.171875 C 257.273438 299.71875 258.96875 298.230469 260.628906 296.707031 C 262.292969 295.179688 263.925781 293.625 265.523438 292.03125 C 267.121094 290.441406 268.683594 288.816406 270.214844 287.160156 C 271.746094 285.503906 273.242188 283.816406 274.703125 282.097656 C 276.164062 280.378906 277.585938 278.632812 278.976562 276.855469 C 280.363281 275.074219 281.714844 273.269531 283.027344 271.4375 C 284.339844 269.601562 285.613281 267.742188 286.851562 265.855469 C 288.085938 263.96875 289.28125 262.058594 290.4375 260.121094 C 291.59375 258.183594 292.710938 256.226562 293.785156 254.242188 C 294.863281 252.261719 295.894531 250.257812 296.886719 248.230469 C 297.878906 246.207031 298.828125 244.160156 299.734375 242.09375 C 300.644531 240.03125 301.507812 237.949219 302.328125 235.847656 C 303.148438 233.746094 303.925781 231.628906 304.65625 229.496094 C 305.390625 227.363281 306.078125 225.214844 306.722656 223.054688 C 307.367188 220.894531 307.964844 218.71875 308.519531 216.53125 C 309.070312 214.347656 309.578125 212.148438 310.039062 209.941406 C 310.503906 207.734375 310.917969 205.519531 311.289062 203.292969 C 311.660156 201.066406 311.984375 198.835938 312.261719 196.597656 C 312.539062 194.359375 312.769531 192.117188 312.953125 189.871094 C 313.136719 187.621094 313.277344 185.371094 313.367188 183.117188 C 313.457031 180.863281 313.503906 178.609375 313.5 176.355469 L 313.5 98.816406 C 313.5 98.179688 313.4375 97.546875 313.3125 96.925781 C 313.191406 96.300781 313.003906 95.695312 312.761719 95.105469 C 312.519531 94.519531 312.21875 93.960938 311.867188 93.429688 C 311.511719 92.902344 311.109375 92.410156 310.660156 91.960938 C 310.210938 91.511719 309.722656 91.109375 309.191406 90.757812 C 308.664062 90.402344 308.105469 90.105469 307.515625 89.859375 C 306.929688 89.617188 306.324219 89.433594 305.699219 89.308594 C 305.074219 89.183594 304.445312 89.125 303.808594 89.125 C 298.761719 88.914062 293.738281 88.488281 288.730469 87.835938 C 283.722656 87.183594 278.757812 86.308594 273.828125 85.21875 C 268.898438 84.125 264.027344 82.820312 259.210938 81.296875 C 254.398438 79.773438 249.660156 78.039062 245 76.097656 C 240.339844 74.15625 235.777344 72.011719 231.304688 69.664062 C 226.835938 67.316406 222.476562 64.777344 218.230469 62.046875 C 213.984375 59.3125 209.867188 56.398438 205.882812 53.300781 C 201.894531 50.207031 198.050781 46.9375 194.351562 43.5 C 193.902344 43.050781 193.414062 42.648438 192.882812 42.296875 C 192.355469 41.941406 191.796875 41.644531 191.207031 41.402344 C 190.621094 41.15625 190.015625 40.972656 189.390625 40.851562 C 188.765625 40.726562 188.136719 40.664062 187.5 40.664062 C 186.863281 40.664062 186.234375 40.726562 185.609375 40.851562 C 184.984375 40.972656 184.378906 41.15625 183.792969 41.402344 C 183.203125 41.644531 182.644531 41.941406 182.117188 42.296875 C 181.585938 42.648438 181.097656 43.050781 180.648438 43.5 C 135.742188 88.40625 71.8125 89.125 71.191406 89.125 C 70.554688 89.125 69.925781 89.183594 69.300781 89.308594 C 68.675781 89.433594 68.070312 89.617188 67.484375 89.859375 C 66.894531 90.105469 66.335938 90.402344 65.808594 90.757812 C 65.277344 91.109375 64.789062 91.511719 64.339844 91.960938 C 63.890625 92.410156 63.488281 92.902344 63.132812 93.429688 C 62.78125 93.960938 62.480469 94.519531 62.238281 95.105469 C 61.996094 95.695312 61.808594 96.300781 61.6875 96.925781 C 61.5625 97.546875 61.5 98.179688 61.5 98.816406 L 61.5 176.355469 C 61.496094 178.609375 61.542969 180.863281 61.632812 183.117188 C 61.722656 185.371094 61.863281 187.621094 62.046875 189.871094 C 62.230469 192.117188 62.460938 194.359375 62.738281 196.597656 C 63.015625 198.835938 63.339844 201.066406 63.710938 203.292969 C 64.082031 205.519531 64.496094 207.734375 64.957031 209.941406 C 65.421875 212.148438 65.929688 214.347656 66.480469 216.53125 C 67.035156 218.71875 67.632812 220.894531 68.277344 223.054688 C 68.921875 225.214844 69.609375 227.363281 70.34375 229.496094 C 71.074219 231.628906 71.851562 233.746094 72.671875 235.847656 C 73.492188 237.949219 74.355469 240.03125 75.265625 242.09375 C 76.171875 244.160156 77.121094 246.207031 78.113281 248.230469 C 79.105469 250.257812 80.136719 252.261719 81.214844 254.242188 C 82.289062 256.226562 83.40625 258.183594 84.5625 260.121094 C 85.71875 262.058594 86.914062 263.96875 88.148438 265.855469 C 89.386719 267.742188 90.660156 269.601562 91.972656 271.4375 C 93.285156 273.269531 94.636719 275.074219 96.023438 276.855469 C 97.414062 278.632812 98.835938 280.378906 100.296875 282.097656 C 101.757812 283.816406 103.253906 285.503906 104.785156 287.160156 C 106.316406 288.816406 107.878906 290.441406 109.476562 292.03125 C 111.074219 293.625 112.707031 295.179688 114.367188 296.707031 C 116.03125 298.230469 117.726562 299.71875 119.449219 301.171875 C 121.175781 302.625 122.929688 304.042969 124.710938 305.421875 C 126.496094 306.804688 128.304688 308.148438 130.144531 309.453125 C 131.984375 310.757812 133.851562 312.023438 135.742188 313.253906 C 137.632812 314.480469 139.550781 315.667969 141.492188 316.816406 C 143.433594 317.964844 145.394531 319.074219 147.382812 320.140625 C 149.371094 321.207031 151.378906 322.234375 153.40625 323.214844 C 155.4375 324.199219 157.488281 325.140625 159.554688 326.039062 C 161.625 326.9375 163.710938 327.792969 165.8125 328.605469 C 167.917969 329.417969 170.039062 330.1875 172.175781 330.910156 C 174.3125 331.632812 176.460938 332.3125 178.625 332.949219 C 180.789062 333.582031 182.964844 334.171875 185.15625 334.714844 Z M 80.882812 107.984375 C 90.644531 107.15625 100.285156 105.582031 109.800781 103.261719 C 119.320312 100.941406 128.601562 97.898438 137.648438 94.140625 C 146.695312 90.378906 155.394531 85.945312 163.753906 80.835938 C 172.113281 75.730469 180.027344 70.007812 187.5 63.671875 C 194.972656 70.007812 202.886719 75.730469 211.246094 80.835938 C 219.605469 85.945312 228.304688 90.378906 237.351562 94.140625 C 246.398438 97.898438 255.679688 100.941406 265.199219 103.261719 C 274.714844 105.582031 284.355469 107.15625 294.117188 107.984375 L 294.117188 176.355469 C 294.117188 178.316406 294.078125 180.277344 294 182.238281 C 293.921875 184.199219 293.804688 186.15625 293.644531 188.113281 C 293.488281 190.066406 293.289062 192.019531 293.050781 193.96875 C 292.8125 195.914062 292.535156 197.855469 292.214844 199.792969 C 291.898438 201.730469 291.539062 203.660156 291.144531 205.582031 C 290.746094 207.5 290.308594 209.414062 289.835938 211.316406 C 289.359375 213.222656 288.84375 215.113281 288.292969 216.996094 C 287.738281 218.878906 287.148438 220.75 286.515625 222.609375 C 285.886719 224.46875 285.21875 226.3125 284.515625 228.144531 C 283.808594 229.972656 283.066406 231.789062 282.289062 233.589844 C 281.507812 235.390625 280.691406 237.175781 279.839844 238.941406 C 278.984375 240.710938 278.097656 242.457031 277.171875 244.1875 C 276.25 245.917969 275.289062 247.632812 274.292969 249.324219 C 273.300781 251.015625 272.269531 252.683594 271.207031 254.332031 C 270.144531 255.984375 269.046875 257.609375 267.917969 259.214844 C 266.789062 260.816406 265.625 262.398438 264.433594 263.957031 C 263.238281 265.511719 262.011719 267.042969 260.753906 268.550781 C 259.496094 270.058594 258.210938 271.535156 256.890625 272.992188 C 255.574219 274.445312 254.226562 275.871094 252.851562 277.269531 C 251.472656 278.667969 250.070312 280.039062 248.636719 281.378906 C 247.207031 282.71875 245.746094 284.03125 244.257812 285.3125 C 242.773438 286.59375 241.261719 287.84375 239.722656 289.0625 C 238.1875 290.28125 236.625 291.46875 235.039062 292.625 C 233.453125 293.777344 231.84375 294.902344 230.210938 295.992188 C 228.578125 297.078125 226.925781 298.136719 225.25 299.15625 C 223.574219 300.179688 221.878906 301.164062 220.164062 302.117188 C 218.449219 303.070312 216.714844 303.984375 214.960938 304.867188 C 213.207031 305.746094 211.4375 306.59375 209.648438 307.402344 C 207.859375 308.207031 206.058594 308.980469 204.238281 309.714844 C 202.417969 310.449219 200.585938 311.144531 198.738281 311.804688 C 196.886719 312.464844 195.027344 313.085938 193.152344 313.667969 C 191.28125 314.253906 189.394531 314.796875 187.5 315.300781 C 185.605469 314.796875 183.71875 314.253906 181.847656 313.667969 C 179.972656 313.085938 178.113281 312.464844 176.261719 311.804688 C 174.414062 311.144531 172.582031 310.449219 170.761719 309.714844 C 168.941406 308.980469 167.140625 308.207031 165.351562 307.402344 C 163.5625 306.59375 161.792969 305.746094 160.039062 304.867188 C 158.285156 303.984375 156.550781 303.070312 154.835938 302.117188 C 153.121094 301.164062 151.425781 300.179688 149.75 299.15625 C 148.074219 298.136719 146.421875 297.078125 144.789062 295.992188 C 143.15625 294.902344 141.546875 293.777344 139.960938 292.625 C 138.375 291.46875 136.8125 290.28125 135.277344 289.0625 C 133.738281 287.84375 132.226562 286.59375 130.742188 285.3125 C 129.253906 284.03125 127.792969 282.71875 126.363281 281.378906 C 124.929688 280.039062 123.527344 278.667969 122.148438 277.269531 C 120.773438 275.871094 119.425781 274.445312 118.109375 272.992188 C 116.789062 271.535156 115.503906 270.058594 114.246094 268.550781 C 112.988281 267.042969 111.761719 265.511719 110.566406 263.957031 C 109.375 262.398438 108.210938 260.816406 107.082031 259.214844 C 105.953125 257.609375 104.855469 255.984375 103.792969 254.332031 C 102.730469 252.683594 101.699219 251.015625 100.707031 249.324219 C 99.710938 247.632812 98.75 245.917969 97.828125 244.1875 C 96.902344 242.457031 96.015625 240.710938 95.160156 238.941406 C 94.308594 237.175781 93.492188 235.390625 92.710938 233.589844 C 91.933594 231.789062 91.191406 229.972656 90.484375 228.144531 C 89.78125 226.3125 89.113281 224.46875 88.484375 222.609375 C 87.851562 220.75 87.261719 218.878906 86.707031 216.996094 C 86.15625 215.113281 85.640625 213.222656 85.164062 211.316406 C 84.691406 209.414062 84.253906 207.5 83.855469 205.582031 C 83.460938 203.660156 83.101562 201.730469 82.785156 199.792969 C 82.464844 197.855469 82.1875 195.914062 81.949219 193.96875 C 81.710938 192.019531 81.511719 190.066406 81.355469 188.113281 C 81.195312 186.15625 81.078125 184.199219 81 182.238281 C 80.921875 180.277344 80.882812 178.316406 80.882812 176.355469 Z M 80.882812 107.984375 " fill-opacity="1" fill-rule="nonzero"/></g><path fill="#ffffff" d="M 170.957031 221.976562 C 171.410156 222.417969 171.902344 222.8125 172.433594 223.160156 C 172.960938 223.507812 173.523438 223.800781 174.109375 224.039062 C 174.695312 224.277344 175.300781 224.457031 175.921875 224.578125 C 176.546875 224.703125 177.171875 224.761719 177.808594 224.761719 C 178.441406 224.761719 179.070312 224.703125 179.691406 224.578125 C 180.3125 224.457031 180.917969 224.277344 181.507812 224.039062 C 182.09375 223.800781 182.652344 223.507812 183.183594 223.160156 C 183.714844 222.8125 184.207031 222.417969 184.660156 221.976562 L 242.8125 163.820312 C 243.25 163.367188 243.640625 162.878906 243.980469 162.351562 C 244.324219 161.820312 244.609375 161.265625 244.84375 160.679688 C 245.078125 160.097656 245.253906 159.496094 245.367188 158.875 C 245.484375 158.257812 245.539062 157.632812 245.535156 157.003906 C 245.527344 156.375 245.460938 155.753906 245.335938 155.136719 C 245.210938 154.519531 245.023438 153.921875 244.78125 153.339844 C 244.539062 152.761719 244.238281 152.207031 243.890625 151.6875 C 243.539062 151.164062 243.140625 150.679688 242.695312 150.234375 C 242.25 149.789062 241.765625 149.390625 241.246094 149.042969 C 240.722656 148.691406 240.171875 148.394531 239.589844 148.148438 C 239.011719 147.90625 238.410156 147.722656 237.796875 147.59375 C 237.179688 147.46875 236.554688 147.402344 235.925781 147.398438 C 235.296875 147.390625 234.671875 147.445312 234.054688 147.5625 C 233.4375 147.679688 232.835938 147.851562 232.25 148.085938 C 231.664062 148.320312 231.109375 148.605469 230.582031 148.949219 C 230.050781 149.289062 229.5625 149.679688 229.109375 150.117188 L 177.808594 201.417969 L 155.582031 179.195312 C 155.128906 178.757812 154.640625 178.367188 154.113281 178.023438 C 153.582031 177.683594 153.027344 177.394531 152.441406 177.164062 C 151.855469 176.929688 151.257812 176.753906 150.636719 176.640625 C 150.019531 176.523438 149.394531 176.46875 148.765625 176.472656 C 148.136719 176.480469 147.511719 176.542969 146.898438 176.671875 C 146.28125 176.796875 145.683594 176.984375 145.101562 177.226562 C 144.519531 177.46875 143.96875 177.765625 143.449219 178.117188 C 142.925781 178.46875 142.441406 178.867188 141.996094 179.3125 C 141.550781 179.757812 141.152344 180.242188 140.800781 180.761719 C 140.453125 181.285156 140.15625 181.835938 139.910156 182.417969 C 139.667969 182.996094 139.484375 183.597656 139.355469 184.210938 C 139.230469 184.828125 139.164062 185.453125 139.15625 186.082031 C 139.152344 186.710938 139.207031 187.335938 139.324219 187.953125 C 139.441406 188.570312 139.613281 189.171875 139.847656 189.757812 C 140.082031 190.339844 140.367188 190.898438 140.710938 191.425781 C 141.050781 191.957031 141.441406 192.445312 141.878906 192.898438 Z M 170.957031 221.976562 " fill-opacity="1" fill-rule="nonzero"/></svg>