<svg xmlns="http://www.w3.org/2000/svg" xmlns:xlink="http://www.w3.org/1999/xlink" width="500" zoomAndPan="magnify" viewBox="0 0 375 374.999991" height="500" preserveAspectRatio="xMidYMid meet" version="1.0"><defs><clipPath id="cdafa4f9d4"><path d="M 66 125 L 307 125 L 307 267.75 L 66 267.75 Z M 66 125 " clip-rule="nonzero"/></clipPath><clipPath id="ce4710c5dc"><path d="M 37.5 189 L 69 189 L 69 242 L 37.5 242 Z M 37.5 189 " clip-rule="nonzero"/></clipPath><clipPath id="bf717c3c4d"><path d="M 192 67.5 L 224 67.5 L 224 120 L 192 120 Z M 192 67.5 " clip-rule="nonzero"/></clipPath><clipPath id="352e775811"><path d="M 306 104 L 337.5 104 L 337.5 157 L 306 157 Z M 306 104 " clip-rule="nonzero"/></clipPath></defs><g clip-path="url(#cdafa4f9d4)"><path fill="#ffffff" d="M 134.777344 267.757812 C 134.769531 267.757812 134.761719 267.757812 134.753906 267.757812 C 132.519531 267.734375 130.292969 267.691406 128.070312 267.625 C 126.964844 267.589844 126.09375 266.679688 126.128906 265.574219 C 126.160156 264.472656 127.066406 263.59375 128.179688 263.632812 C 130.386719 263.691406 132.59375 263.734375 134.800781 263.761719 C 135.90625 263.777344 136.785156 264.679688 136.777344 265.785156 C 136.761719 266.878906 135.863281 267.757812 134.777344 267.757812 Z M 148.085938 267.714844 C 147 267.714844 146.113281 266.847656 146.085938 265.75 C 146.070312 264.648438 146.949219 263.734375 148.050781 263.71875 C 150.261719 263.675781 152.46875 263.625 154.675781 263.558594 C 155.78125 263.515625 156.703125 264.394531 156.734375 265.492188 C 156.769531 266.585938 155.898438 267.515625 154.800781 267.550781 C 152.578125 267.617188 150.34375 267.675781 148.121094 267.707031 C 148.109375 267.714844 148.09375 267.714844 148.085938 267.714844 Z M 114.820312 267.039062 C 114.777344 267.039062 114.734375 267.039062 114.695312 267.039062 C 112.46875 266.90625 110.242188 266.746094 108.019531 266.570312 C 106.921875 266.488281 106.09375 265.523438 106.1875 264.421875 C 106.269531 263.324219 107.234375 262.496094 108.335938 262.589844 C 110.535156 262.765625 112.738281 262.914062 114.9375 263.050781 C 116.039062 263.117188 116.878906 264.0625 116.808594 265.164062 C 116.742188 266.226562 115.863281 267.039062 114.820312 267.039062 Z M 168.027344 266.796875 C 166.980469 266.796875 166.09375 265.976562 166.035156 264.914062 C 165.96875 263.808594 166.8125 262.863281 167.910156 262.804688 L 169.765625 262.699219 C 171.355469 262.605469 172.945312 262.523438 174.535156 262.40625 C 175.640625 262.328125 176.59375 263.15625 176.667969 264.253906 C 176.742188 265.359375 175.914062 266.3125 174.820312 266.386719 C 173.214844 266.496094 171.597656 266.585938 169.992188 266.679688 L 168.144531 266.789062 C 168.101562 266.796875 168.070312 266.796875 168.027344 266.796875 Z M 94.929688 265.273438 C 94.851562 265.273438 94.769531 265.265625 94.695312 265.257812 C 92.476562 264.996094 90.261719 264.714844 88.050781 264.402344 C 86.957031 264.253906 86.195312 263.242188 86.347656 262.152344 C 86.496094 261.058594 87.507812 260.296875 88.597656 260.449219 C 90.78125 260.75 92.972656 261.03125 95.152344 261.292969 C 96.25 261.425781 97.035156 262.414062 96.902344 263.507812 C 96.792969 264.519531 95.933594 265.273438 94.929688 265.273438 Z M 187.835938 264.496094 C 186.949219 264.496094 186.136719 263.902344 185.902344 263 C 185.625 261.929688 186.261719 260.839844 187.332031 260.566406 C 189.492188 260.003906 191.441406 259.328125 193.273438 258.480469 C 194.273438 258.023438 195.464844 258.464844 195.914062 259.46875 C 196.375 260.472656 195.929688 261.660156 194.929688 262.113281 C 192.878906 263.050781 190.71875 263.800781 188.328125 264.429688 C 188.167969 264.480469 188 264.496094 187.835938 264.496094 Z M 75.1875 262.304688 C 75.070312 262.304688 74.945312 262.296875 74.828125 262.269531 C 72.628906 261.871094 70.4375 261.441406 68.253906 260.992188 C 67.175781 260.765625 66.480469 259.710938 66.707031 258.632812 C 66.933594 257.554688 67.984375 256.859375 69.066406 257.085938 C 71.222656 257.527344 73.390625 257.953125 75.554688 258.347656 C 76.644531 258.550781 77.363281 259.585938 77.160156 260.671875 C 76.96875 261.636719 76.132812 262.304688 75.1875 262.304688 Z M 204.003906 251.304688 L 202.3125 250.746094 L 202.105469 250.753906 L 200.105469 250.675781 L 200.105469 250.351562 L 200.207031 250.042969 C 200.875 248.019531 201.21875 246.117188 201.21875 244.394531 L 201.21875 244.238281 C 201.210938 243.132812 202.089844 242.230469 203.191406 242.222656 C 204.304688 242.203125 205.199219 243.089844 205.207031 244.195312 L 205.207031 244.394531 C 205.214844 246.554688 204.804688 248.871094 204.003906 251.304688 Z M 197.101562 234.992188 C 196.683594 234.992188 196.257812 234.859375 195.898438 234.585938 C 194.425781 233.464844 192.667969 232.433594 190.527344 231.449219 C 189.523438 230.980469 189.097656 229.792969 189.558594 228.796875 C 190.027344 227.792969 191.214844 227.355469 192.210938 227.824219 C 194.609375 228.9375 196.601562 230.109375 198.308594 231.40625 C 199.183594 232.074219 199.359375 233.328125 198.691406 234.207031 C 198.308594 234.71875 197.703125 234.992188 197.101562 234.992188 Z M 178.808594 227.25 C 178.632812 227.25 178.449219 227.222656 178.265625 227.171875 C 176.875 226.78125 175.488281 226.402344 174.125 226.027344 L 171.851562 225.40625 C 170.789062 225.117188 170.160156 224.011719 170.453125 222.949219 C 170.746094 221.886719 171.839844 221.257812 172.910156 221.550781 L 175.179688 222.171875 C 176.550781 222.546875 177.957031 222.921875 179.351562 223.324219 C 180.414062 223.625 181.035156 224.730469 180.734375 225.792969 C 180.480469 226.671875 179.679688 227.25 178.808594 227.25 Z M 251.722656 223.332031 C 251.683594 223.332031 251.648438 223.332031 251.605469 223.332031 C 249.164062 223.191406 246.730469 222.941406 244.875 222.738281 C 243.777344 222.621094 242.984375 221.636719 243.101562 220.539062 C 243.21875 219.445312 244.210938 218.648438 245.300781 218.765625 C 247.105469 218.957031 249.472656 219.203125 251.832031 219.34375 C 252.9375 219.410156 253.773438 220.347656 253.714844 221.453125 C 253.65625 222.515625 252.777344 223.332031 251.722656 223.332031 Z M 264.957031 222.421875 C 264.0625 222.421875 263.25 221.820312 263.023438 220.917969 C 262.757812 219.84375 263.402344 218.757812 264.472656 218.492188 C 266.5625 217.964844 268.417969 217.226562 270.144531 216.25 C 271.105469 215.703125 272.316406 216.039062 272.863281 217 C 273.40625 217.964844 273.070312 219.175781 272.109375 219.71875 C 270.09375 220.867188 267.851562 221.753906 265.441406 222.355469 C 265.28125 222.40625 265.117188 222.421875 264.957031 222.421875 Z M 231.917969 220.941406 C 231.78125 220.941406 231.648438 220.925781 231.515625 220.898438 C 229.347656 220.464844 227.132812 219.929688 224.90625 219.308594 C 223.84375 219.015625 223.21875 217.914062 223.519531 216.851562 C 223.8125 215.789062 224.914062 215.160156 225.976562 215.460938 C 228.109375 216.054688 230.234375 216.566406 232.308594 216.984375 C 233.386719 217.203125 234.089844 218.257812 233.875 219.335938 C 233.671875 220.289062 232.84375 220.941406 231.917969 220.941406 Z M 160.128906 220.507812 C 159.695312 220.507812 159.269531 220.363281 158.902344 220.078125 C 156.933594 218.539062 155.304688 216.675781 154.050781 214.542969 C 153.488281 213.589844 153.808594 212.367188 154.761719 211.808594 C 155.714844 211.246094 156.933594 211.566406 157.496094 212.519531 C 158.492188 214.214844 159.796875 215.703125 161.367188 216.933594 C 162.238281 217.613281 162.390625 218.867188 161.710938 219.738281 C 161.308594 220.238281 160.726562 220.507812 160.128906 220.507812 Z M 212.851562 215.085938 C 212.601562 215.085938 212.351562 215.042969 212.109375 214.945312 C 210.125 214.148438 208.035156 213.261719 205.910156 212.316406 C 204.90625 211.867188 204.457031 210.6875 204.898438 209.683594 C 205.351562 208.679688 206.53125 208.226562 207.535156 208.671875 C 209.617188 209.597656 211.65625 210.460938 213.589844 211.238281 C 214.609375 211.648438 215.113281 212.8125 214.703125 213.832031 C 214.390625 214.617188 213.640625 215.085938 212.851562 215.085938 Z M 278.539062 209.714844 C 278.515625 209.714844 278.5 209.714844 278.472656 209.714844 C 277.371094 209.683594 276.507812 208.761719 276.542969 207.660156 L 276.550781 207.382812 C 276.550781 205.625 276.046875 203.953125 275.09375 202.539062 C 274.476562 201.628906 274.71875 200.382812 275.628906 199.761719 C 276.542969 199.144531 277.789062 199.386719 278.40625 200.296875 C 279.8125 202.371094 280.546875 204.824219 280.546875 207.382812 L 280.539062 207.785156 C 280.5 208.871094 279.613281 209.714844 278.539062 209.714844 Z M 194.710938 206.738281 C 194.410156 206.738281 194.101562 206.671875 193.816406 206.519531 C 191.832031 205.523438 189.859375 204.503906 187.867188 203.476562 C 186.890625 202.964844 186.503906 201.761719 187.015625 200.78125 C 187.515625 199.804688 188.730469 199.417969 189.707031 199.921875 C 191.683594 200.941406 193.648438 201.953125 195.621094 202.949219 C 196.609375 203.441406 197.003906 204.648438 196.507812 205.632812 C 196.148438 206.335938 195.445312 206.738281 194.710938 206.738281 Z M 154.226562 202.714844 C 154.007812 202.714844 153.789062 202.679688 153.582031 202.605469 C 152.535156 202.246094 151.984375 201.117188 152.335938 200.070312 C 153.003906 198.121094 154.042969 196.332031 155.429688 194.769531 L 155.554688 194.632812 C 155.921875 194.292969 156.324219 193.957031 156.742188 193.65625 C 157.636719 193.019531 158.894531 193.230469 159.527344 194.125 C 160.171875 195.019531 159.957031 196.265625 159.058594 196.910156 C 158.808594 197.085938 158.574219 197.277344 158.359375 197.476562 C 157.355469 198.632812 156.601562 199.929688 156.117188 201.359375 C 155.832031 202.1875 155.0625 202.714844 154.226562 202.714844 Z M 176.953125 197.605469 C 176.652344 197.605469 176.339844 197.535156 176.046875 197.386719 L 174.382812 196.542969 C 173.203125 195.988281 171.832031 195.546875 170.351562 195.261719 C 169.273438 195.050781 168.5625 194.007812 168.773438 192.917969 C 168.980469 191.839844 170.027344 191.128906 171.113281 191.339844 C 172.921875 191.691406 174.609375 192.234375 176.132812 192.953125 L 177.855469 193.824219 C 178.84375 194.324219 179.234375 195.519531 178.734375 196.507812 C 178.382812 197.203125 177.679688 197.605469 176.953125 197.605469 Z M 265.828125 196.023438 C 265.527344 196.023438 265.222656 195.957031 264.941406 195.8125 C 263.058594 194.878906 261.058594 193.972656 259 193.121094 C 257.980469 192.703125 257.496094 191.53125 257.914062 190.511719 C 258.332031 189.492188 259.503906 189.003906 260.523438 189.421875 C 262.664062 190.308594 264.746094 191.246094 266.714844 192.226562 C 267.699219 192.71875 268.101562 193.914062 267.609375 194.902344 C 267.265625 195.613281 266.5625 196.023438 265.828125 196.023438 Z M 247.199219 188.90625 C 247.015625 188.90625 246.820312 188.878906 246.628906 188.820312 C 244.65625 188.234375 242.574219 187.667969 240.273438 187.066406 C 239.203125 186.789062 238.566406 185.691406 238.84375 184.628906 C 239.117188 183.566406 240.214844 182.925781 241.277344 183.199219 C 243.617188 183.8125 245.734375 184.394531 247.757812 184.988281 C 248.8125 185.300781 249.421875 186.410156 249.105469 187.472656 C 248.855469 188.34375 248.058594 188.90625 247.199219 188.90625 Z M 227.84375 183.996094 C 227.691406 183.996094 227.542969 183.976562 227.382812 183.945312 C 225.207031 183.433594 223.042969 182.925781 220.890625 182.398438 C 219.820312 182.136719 219.160156 181.058594 219.429688 179.980469 C 219.6875 178.910156 220.765625 178.25 221.84375 178.515625 C 223.988281 179.042969 226.144531 179.542969 228.304688 180.054688 C 229.375 180.304688 230.042969 181.386719 229.792969 182.457031 C 229.566406 183.375 228.746094 183.996094 227.84375 183.996094 Z M 208.546875 178.851562 C 208.351562 178.851562 208.152344 178.824219 207.960938 178.757812 C 205.859375 178.113281 203.71875 177.445312 201.570312 176.734375 C 200.523438 176.390625 199.953125 175.261719 200.296875 174.207031 C 200.640625 173.164062 201.769531 172.59375 202.824219 172.9375 C 204.941406 173.640625 207.054688 174.292969 209.132812 174.9375 C 210.183594 175.261719 210.777344 176.375 210.453125 177.429688 C 210.191406 178.296875 209.398438 178.851562 208.546875 178.851562 Z M 189.792969 172.015625 C 189.507812 172.015625 189.214844 171.957031 188.9375 171.824219 C 186.746094 170.785156 184.714844 169.683594 182.882812 168.554688 C 181.945312 167.96875 181.652344 166.738281 182.238281 165.800781 C 182.824219 164.863281 184.054688 164.570312 184.992188 165.15625 C 186.6875 166.210938 188.597656 167.238281 190.644531 168.210938 C 191.640625 168.679688 192.066406 169.875 191.597656 170.871094 C 191.253906 171.589844 190.535156 172.015625 189.792969 172.015625 Z M 304.746094 169.179688 C 304.53125 169.179688 304.3125 169.148438 304.101562 169.070312 C 302.246094 168.4375 300.246094 167.800781 297.828125 167.074219 C 296.777344 166.753906 296.171875 165.640625 296.5 164.582031 C 296.816406 163.527344 297.929688 162.925781 298.992188 163.25 C 301.460938 163.996094 303.5 164.648438 305.398438 165.292969 C 306.445312 165.652344 306.996094 166.78125 306.644531 167.824219 C 306.351562 168.652344 305.582031 169.179688 304.746094 169.179688 Z M 285.632812 163.382812 C 285.441406 163.382812 285.25 163.359375 285.046875 163.300781 C 282.664062 162.574219 280.574219 161.902344 278.648438 161.242188 C 277.605469 160.882812 277.050781 159.753906 277.402344 158.707031 C 277.761719 157.664062 278.890625 157.109375 279.9375 157.460938 C 281.820312 158.105469 283.871094 158.765625 286.210938 159.476562 C 287.265625 159.796875 287.859375 160.917969 287.542969 161.96875 C 287.28125 162.832031 286.488281 163.382812 285.632812 163.382812 Z M 174.015625 160.097656 C 173.414062 160.097656 172.8125 159.820312 172.417969 159.300781 C 170.972656 157.386719 169.773438 155.320312 168.847656 153.152344 C 168.410156 152.140625 168.878906 150.960938 169.890625 150.535156 C 170.90625 150.101562 172.082031 150.570312 172.511719 151.582031 C 173.3125 153.457031 174.351562 155.246094 175.605469 156.902344 C 176.265625 157.78125 176.097656 159.035156 175.210938 159.695312 C 174.859375 159.964844 174.433594 160.097656 174.015625 160.097656 Z M 266.964844 156.339844 C 266.671875 156.339844 266.371094 156.273438 266.085938 156.140625 C 264.6875 155.453125 263.324219 154.742188 262.019531 154.007812 C 261.527344 153.855469 261.007812 153.730469 260.480469 153.613281 C 259.402344 153.378906 258.726562 152.308594 258.960938 151.238281 C 259.195312 150.160156 260.265625 149.480469 261.335938 149.714844 C 262.097656 149.882812 262.773438 150.058594 263.410156 150.261719 L 263.792969 150.425781 C 265.089844 151.15625 266.445312 151.875 267.84375 152.550781 C 268.828125 153.035156 269.238281 154.234375 268.761719 155.21875 C 268.417969 155.921875 267.707031 156.339844 266.964844 156.339844 Z M 247.902344 151.070312 C 247.589844 151.070312 247.28125 150.996094 246.988281 150.84375 C 245.15625 149.890625 243.21875 148.9375 241.082031 147.910156 C 240.089844 147.433594 239.671875 146.246094 240.148438 145.25 C 240.625 144.253906 241.8125 143.835938 242.808594 144.3125 C 244.980469 145.359375 246.957031 146.328125 248.828125 147.300781 C 249.808594 147.808594 250.191406 149.011719 249.683594 149.992188 C 249.324219 150.679688 248.621094 151.070312 247.902344 151.070312 Z M 229.832031 142.574219 C 229.558594 142.574219 229.28125 142.515625 229.023438 142.398438 L 228.109375 141.988281 C 226.386719 141.21875 224.65625 140.449219 222.941406 139.671875 C 221.9375 139.21875 221.484375 138.03125 221.945312 137.027344 C 222.398438 136.023438 223.585938 135.570312 224.589844 136.03125 C 226.304688 136.808594 228.027344 137.570312 229.742188 138.339844 L 230.652344 138.75 C 231.65625 139.203125 232.109375 140.382812 231.664062 141.386719 C 231.324219 142.128906 230.59375 142.574219 229.832031 142.574219 Z M 170.46875 141.492188 C 170.195312 141.492188 169.917969 141.433594 169.65625 141.316406 C 168.65625 140.867188 168.195312 139.6875 168.644531 138.683594 C 169.625 136.492188 171.003906 134.449219 172.746094 132.636719 C 173.507812 131.839844 174.769531 131.808594 175.570312 132.570312 C 176.367188 133.328125 176.398438 134.59375 175.640625 135.394531 C 174.234375 136.867188 173.078125 138.566406 172.300781 140.3125 C 171.96875 141.058594 171.238281 141.492188 170.46875 141.492188 Z M 211.714844 134.167969 C 211.414062 134.167969 211.105469 134.097656 210.820312 133.949219 C 209.992188 133.53125 209.164062 133.113281 208.351562 132.675781 C 207.265625 132.269531 206.144531 131.898438 205.015625 131.566406 C 203.953125 131.253906 203.351562 130.144531 203.660156 129.089844 C 203.96875 128.027344 205.082031 127.425781 206.136719 127.734375 C 207.398438 128.101562 208.652344 128.519531 209.875 128.980469 L 210.101562 129.082031 C 210.9375 129.515625 211.773438 129.949219 212.628906 130.378906 C 213.613281 130.871094 214.007812 132.074219 213.515625 133.0625 C 213.15625 133.757812 212.445312 134.167969 211.714844 134.167969 Z M 185.808594 130.09375 C 184.832031 130.09375 183.976562 129.375 183.835938 128.378906 C 183.6875 127.28125 184.4375 126.277344 185.535156 126.121094 C 187.625 125.828125 189.785156 125.675781 191.949219 125.675781 L 192.476562 125.675781 C 193.582031 125.683594 194.46875 126.589844 194.449219 127.691406 C 194.441406 128.796875 193.523438 129.683594 192.433594 129.667969 L 191.949219 129.667969 C 189.976562 129.667969 188 129.800781 186.09375 130.074219 C 185.996094 130.085938 185.902344 130.09375 185.808594 130.09375 Z M 185.808594 130.09375 " fill-opacity="1" fill-rule="nonzero"/></g><g clip-path="url(#ce4710c5dc)"><path fill="#ffffff" d="M 53.246094 189.742188 C 44.742188 189.742188 37.839844 196.640625 37.839844 205.148438 C 37.839844 213.65625 44.179688 241.453125 53.246094 241.527344 C 61.703125 241.527344 68.65625 213.664062 68.65625 205.148438 C 68.65625 196.632812 61.753906 189.742188 53.246094 189.742188 Z M 53.246094 215.421875 C 47.574219 215.421875 42.976562 210.820312 42.976562 205.148438 C 42.976562 199.476562 47.574219 194.878906 53.246094 194.878906 C 58.917969 194.878906 63.519531 199.476562 63.519531 205.148438 C 63.511719 210.820312 58.917969 215.421875 53.246094 215.421875 Z M 53.246094 215.421875 " fill-opacity="1" fill-rule="nonzero"/></g><path fill="#ffffff" d="M 53.246094 246.761719 C 49.617188 246.761719 46.679688 249.707031 46.679688 253.335938 C 46.679688 256.96875 49.625 259.902344 53.246094 259.902344 C 56.867188 259.902344 59.8125 256.960938 59.8125 253.335938 C 59.8125 249.707031 56.867188 246.761719 53.246094 246.761719 Z M 53.246094 246.761719 " fill-opacity="1" fill-rule="nonzero"/><g clip-path="url(#bf717c3c4d)"><path fill="#ffffff" d="M 207.917969 67.492188 C 199.410156 67.492188 192.511719 74.390625 192.511719 82.898438 C 192.511719 91.40625 198.851562 119.203125 207.917969 119.277344 C 216.375 119.277344 223.324219 91.414062 223.324219 82.898438 C 223.324219 74.382812 216.425781 67.492188 207.917969 67.492188 Z M 207.917969 93.171875 C 202.246094 93.171875 197.644531 88.570312 197.644531 82.898438 C 197.644531 77.226562 202.246094 72.628906 207.917969 72.628906 C 213.589844 72.628906 218.191406 77.226562 218.191406 82.898438 C 218.191406 88.570312 213.589844 93.171875 207.917969 93.171875 Z M 207.917969 93.171875 " fill-opacity="1" fill-rule="nonzero"/></g><path fill="#ffffff" d="M 214.484375 131.089844 C 214.484375 131.519531 214.441406 131.945312 214.359375 132.371094 C 214.273438 132.792969 214.148438 133.203125 213.984375 133.601562 C 213.820312 134 213.617188 134.378906 213.378906 134.734375 C 213.136719 135.09375 212.867188 135.425781 212.5625 135.730469 C 212.257812 136.035156 211.925781 136.308594 211.566406 136.546875 C 211.207031 136.789062 210.828125 136.988281 210.429688 137.15625 C 210.03125 137.320312 209.621094 137.445312 209.199219 137.527344 C 208.777344 137.613281 208.347656 137.65625 207.917969 137.65625 C 207.488281 137.65625 207.058594 137.613281 206.636719 137.527344 C 206.214844 137.445312 205.804688 137.320312 205.40625 137.15625 C 205.007812 136.988281 204.628906 136.789062 204.269531 136.546875 C 203.910156 136.308594 203.578125 136.035156 203.273438 135.730469 C 202.96875 135.425781 202.699219 135.09375 202.457031 134.734375 C 202.21875 134.378906 202.015625 134 201.851562 133.601562 C 201.6875 133.203125 201.5625 132.792969 201.476562 132.371094 C 201.394531 131.945312 201.351562 131.519531 201.351562 131.089844 C 201.351562 130.65625 201.394531 130.230469 201.476562 129.808594 C 201.5625 129.382812 201.6875 128.972656 201.851562 128.574219 C 202.015625 128.175781 202.21875 127.796875 202.457031 127.441406 C 202.699219 127.082031 202.96875 126.75 203.273438 126.445312 C 203.578125 126.140625 203.910156 125.867188 204.269531 125.628906 C 204.628906 125.390625 205.007812 125.1875 205.40625 125.023438 C 205.804688 124.855469 206.214844 124.730469 206.636719 124.648438 C 207.058594 124.5625 207.488281 124.523438 207.917969 124.523438 C 208.347656 124.523438 208.777344 124.5625 209.199219 124.648438 C 209.621094 124.730469 210.03125 124.855469 210.429688 125.023438 C 210.828125 125.1875 211.207031 125.390625 211.566406 125.628906 C 211.925781 125.867188 212.257812 126.140625 212.5625 126.445312 C 212.867188 126.75 213.136719 127.082031 213.378906 127.441406 C 213.617188 127.796875 213.820312 128.175781 213.984375 128.574219 C 214.148438 128.972656 214.273438 129.382812 214.359375 129.808594 C 214.441406 130.230469 214.484375 130.65625 214.484375 131.089844 Z M 214.484375 131.089844 " fill-opacity="1" fill-rule="nonzero"/><path fill="#ffffff" d="M 247.859375 155.988281 C 239.351562 155.988281 232.453125 162.890625 232.453125 171.398438 C 232.453125 179.90625 238.792969 207.699219 247.859375 207.773438 C 256.316406 207.773438 263.265625 179.914062 263.265625 171.398438 C 263.265625 162.890625 256.367188 155.988281 247.859375 155.988281 Z M 247.859375 181.667969 C 242.1875 181.667969 237.585938 177.070312 237.585938 171.398438 C 237.585938 165.726562 242.1875 161.125 247.859375 161.125 C 253.53125 161.125 258.132812 165.726562 258.132812 171.398438 C 258.132812 177.070312 253.53125 181.667969 247.859375 181.667969 Z M 247.859375 181.667969 " fill-opacity="1" fill-rule="nonzero"/><path fill="#ffffff" d="M 247.859375 213.019531 C 244.230469 213.019531 241.292969 215.964844 241.292969 219.585938 C 241.292969 223.214844 244.238281 226.152344 247.859375 226.152344 C 251.488281 226.152344 254.425781 223.207031 254.425781 219.585938 C 254.433594 215.957031 251.488281 213.019531 247.859375 213.019531 Z M 247.859375 213.019531 " fill-opacity="1" fill-rule="nonzero"/><path fill="#ffffff" d="M 155.757812 133.824219 C 147.25 133.824219 140.347656 140.722656 140.347656 149.230469 C 140.347656 157.738281 146.6875 185.535156 155.757812 185.609375 C 164.210938 185.609375 171.164062 157.746094 171.164062 149.230469 C 171.164062 140.714844 164.269531 133.824219 155.757812 133.824219 Z M 155.757812 159.503906 C 150.085938 159.503906 145.484375 154.902344 145.484375 149.230469 C 145.484375 143.558594 150.085938 138.960938 155.757812 138.960938 C 161.425781 138.960938 166.027344 143.558594 166.027344 149.230469 C 166.027344 154.902344 161.425781 159.503906 155.757812 159.503906 Z M 155.757812 159.503906 " fill-opacity="1" fill-rule="nonzero"/><path fill="#ffffff" d="M 155.757812 190.84375 C 152.125 190.84375 149.191406 193.789062 149.191406 197.417969 C 149.191406 201.050781 152.132812 203.984375 155.757812 203.984375 C 159.378906 203.984375 162.324219 201.042969 162.324219 197.417969 C 162.332031 193.789062 159.386719 190.84375 155.757812 190.84375 Z M 155.757812 190.84375 " fill-opacity="1" fill-rule="nonzero"/><g clip-path="url(#352e775811)"><path fill="#ffffff" d="M 321.703125 104.648438 C 313.195312 104.648438 306.296875 111.546875 306.296875 120.054688 C 306.296875 128.5625 312.636719 156.359375 321.703125 156.433594 C 330.160156 156.433594 337.109375 128.570312 337.109375 120.054688 C 337.109375 111.539062 330.210938 104.648438 321.703125 104.648438 Z M 321.703125 130.320312 C 316.03125 130.320312 311.429688 125.71875 311.429688 120.046875 C 311.429688 114.375 316.03125 109.773438 321.703125 109.773438 C 327.375 109.773438 331.972656 114.375 331.972656 120.046875 C 331.972656 125.726562 327.375 130.320312 321.703125 130.320312 Z M 321.703125 130.320312 " fill-opacity="1" fill-rule="nonzero"/></g><path fill="#ffffff" d="M 328.269531 168.234375 C 328.269531 168.667969 328.226562 169.09375 328.144531 169.515625 C 328.058594 169.9375 327.933594 170.351562 327.769531 170.75 C 327.605469 171.148438 327.402344 171.523438 327.164062 171.882812 C 326.921875 172.242188 326.652344 172.574219 326.34375 172.878906 C 326.039062 173.183594 325.710938 173.457031 325.351562 173.695312 C 324.992188 173.933594 324.613281 174.136719 324.214844 174.300781 C 323.816406 174.46875 323.40625 174.589844 322.984375 174.675781 C 322.5625 174.761719 322.132812 174.800781 321.703125 174.800781 C 321.273438 174.800781 320.84375 174.761719 320.421875 174.675781 C 320 174.589844 319.589844 174.46875 319.191406 174.300781 C 318.792969 174.136719 318.414062 173.933594 318.054688 173.695312 C 317.695312 173.457031 317.363281 173.183594 317.058594 172.878906 C 316.753906 172.574219 316.484375 172.242188 316.242188 171.882812 C 316.003906 171.523438 315.800781 171.148438 315.636719 170.75 C 315.472656 170.351562 315.347656 169.9375 315.261719 169.515625 C 315.179688 169.09375 315.136719 168.667969 315.136719 168.234375 C 315.136719 167.804688 315.179688 167.378906 315.261719 166.953125 C 315.347656 166.53125 315.472656 166.121094 315.636719 165.722656 C 315.800781 165.324219 316.003906 164.945312 316.242188 164.585938 C 316.484375 164.230469 316.753906 163.898438 317.058594 163.59375 C 317.363281 163.289062 317.695312 163.015625 318.054688 162.777344 C 318.414062 162.535156 318.792969 162.335938 319.191406 162.167969 C 319.589844 162.003906 320 161.878906 320.421875 161.796875 C 320.84375 161.710938 321.273438 161.667969 321.703125 161.667969 C 322.132812 161.667969 322.5625 161.710938 322.984375 161.796875 C 323.40625 161.878906 323.816406 162.003906 324.214844 162.167969 C 324.613281 162.335938 324.992188 162.535156 325.351562 162.777344 C 325.710938 163.015625 326.039062 163.289062 326.34375 163.59375 C 326.652344 163.898438 326.921875 164.230469 327.164062 164.585938 C 327.402344 164.945312 327.605469 165.324219 327.769531 165.722656 C 327.933594 166.121094 328.058594 166.53125 328.144531 166.953125 C 328.226562 167.378906 328.269531 167.804688 328.269531 168.234375 Z M 328.269531 168.234375 " fill-opacity="1" fill-rule="nonzero"/></svg>