<svg xmlns="http://www.w3.org/2000/svg" xmlns:xlink="http://www.w3.org/1999/xlink" width="500" zoomAndPan="magnify" viewBox="0 0 375 374.999991" height="500" preserveAspectRatio="xMidYMid meet" version="1.0"><defs><clipPath id="844573217a"><path d="M 37.5 279 L 96 279 L 96 337.5 L 37.5 337.5 Z M 37.5 279 " clip-rule="nonzero"/></clipPath><clipPath id="e4e7673e60"><path d="M 56 37.5 L 337.5 37.5 L 337.5 319 L 56 319 Z M 56 37.5 " clip-rule="nonzero"/></clipPath></defs><g clip-path="url(#844573217a)"><path fill="#ffffff" d="M 66.53125 327.824219 C 55.851562 327.824219 47.175781 319.148438 47.175781 308.46875 C 47.175781 297.789062 55.851562 289.113281 66.53125 289.113281 C 77.210938 289.113281 85.886719 297.789062 85.886719 308.46875 C 85.886719 319.148438 77.210938 327.824219 66.53125 327.824219 Z M 66.53125 279.433594 C 50.523438 279.433594 37.5 292.457031 37.5 308.46875 C 37.5 324.476562 50.523438 337.5 66.53125 337.5 C 82.542969 337.5 95.566406 324.476562 95.566406 308.46875 C 95.566406 292.457031 82.542969 279.433594 66.53125 279.433594 " fill-opacity="1" fill-rule="nonzero"/></g><g clip-path="url(#e4e7673e60)"><path fill="#ffffff" d="M 327.824219 231.046875 C 327.824219 236.378906 323.476562 240.726562 318.144531 240.726562 L 183 240.726562 C 179.011719 233.847656 174.4375 227.382812 169.375 221.371094 L 298.789062 221.371094 C 304.121094 221.371094 308.46875 217.023438 308.46875 211.695312 L 308.46875 76.210938 C 308.46875 70.878906 304.121094 66.53125 298.789062 66.53125 L 124.597656 66.53125 C 119.265625 66.53125 114.917969 70.878906 114.917969 76.210938 L 114.917969 182.738281 C 108.699219 180.316406 102.238281 178.332031 95.566406 176.800781 L 95.566406 56.855469 C 95.566406 51.523438 99.910156 47.175781 105.242188 47.175781 L 313.304688 47.175781 C 321.320312 47.175781 327.824219 53.679688 327.824219 61.695312 Z M 248.53125 269.757812 L 195.628906 269.757812 C 193.585938 263.046875 191.074219 256.582031 188.125 250.402344 L 242.085938 250.402344 Z M 279.433594 293.953125 L 279.433594 298.789062 L 201.335938 298.789062 C 200.710938 292.15625 199.652344 285.710938 198.199219 279.433594 L 264.917969 279.433594 C 272.933594 279.433594 279.433594 285.9375 279.433594 293.953125 Z M 160.320312 211.695312 C 149.941406 201.636719 137.921875 193.246094 124.597656 186.875 L 124.597656 76.210938 L 298.789062 76.210938 L 298.789062 211.695312 Z M 172.851562 308.46875 C 170.394531 250.953125 124.066406 204.605469 66.53125 202.148438 L 66.53125 182.738281 C 136.976562 185.0625 189.9375 238.023438 192.261719 308.46875 Z M 66.53125 260.25 L 66.53125 240.972656 C 102.691406 243.371094 131.628906 272.308594 134.027344 308.46875 L 114.75 308.46875 C 112.800781 280.910156 94.089844 262.199219 66.53125 260.25 Z M 66.53125 211.9375 C 118.699219 214.414062 160.585938 256.300781 163.0625 308.46875 L 143.707031 308.46875 C 141.285156 266.980469 108.019531 233.730469 66.53125 231.292969 Z M 313.304688 37.5 L 105.242188 37.5 C 94.5625 37.5 85.886719 46.175781 85.886719 56.855469 L 85.886719 174.929688 C 78.0625 173.664062 69.992188 172.984375 61.695312 172.984375 L 56.855469 172.984375 L 56.855469 269.757812 L 61.695312 269.757812 C 88.550781 269.757812 105.242188 286.449219 105.242188 313.304688 L 105.242188 318.144531 L 202.015625 318.144531 L 202.015625 313.304688 C 202.015625 311.679688 201.941406 310.074219 201.902344 308.46875 L 289.113281 308.46875 L 289.113281 293.953125 C 289.113281 280.605469 278.261719 269.757812 264.917969 269.757812 L 258.71875 269.757812 L 252.273438 250.402344 L 318.144531 250.402344 C 328.824219 250.402344 337.5 241.726562 337.5 231.046875 L 337.5 61.695312 C 337.5 48.347656 326.652344 37.5 313.304688 37.5 " fill-opacity="1" fill-rule="nonzero"/></g><path fill="#ffffff" d="M 279.433594 202.015625 L 289.113281 202.015625 L 289.113281 192.339844 L 279.433594 192.339844 L 279.433594 202.015625 " fill-opacity="1" fill-rule="nonzero"/><path fill="#ffffff" d="M 260.082031 202.015625 L 269.757812 202.015625 L 269.757812 192.339844 L 260.082031 192.339844 L 260.082031 202.015625 " fill-opacity="1" fill-rule="nonzero"/><path fill="#ffffff" d="M 240.726562 202.015625 L 250.402344 202.015625 L 250.402344 192.339844 L 240.726562 192.339844 L 240.726562 202.015625 " fill-opacity="1" fill-rule="nonzero"/><path fill="#ffffff" d="M 182.660156 113.351562 L 231.484375 139.625 L 182.660156 173.417969 Z M 172.984375 97.132812 L 172.984375 191.902344 L 249.96875 138.601562 L 172.984375 97.132812 " fill-opacity="1" fill-rule="nonzero"/></svg>