<svg xmlns="http://www.w3.org/2000/svg" xmlns:xlink="http://www.w3.org/1999/xlink" width="500" zoomAndPan="magnify" viewBox="0 0 375 374.999991" height="500" preserveAspectRatio="xMidYMid meet" version="1.0"><defs><clipPath id="88e84bd233"><path d="M 37.5 39 L 334 39 L 334 336 L 37.5 336 Z M 37.5 39 " clip-rule="nonzero"/></clipPath></defs><g clip-path="url(#88e84bd233)"><path fill="#ffffff" d="M 322.011719 268.722656 L 270.582031 217.292969 C 278.859375 200.785156 283.617188 182.222656 283.617188 162.523438 C 283.617188 94.78125 228.511719 39.65625 160.796875 39.65625 C 149.800781 39.65625 138.644531 41.222656 127.648438 44.296875 C 119.800781 46.5 115.203125 54.671875 117.421875 62.519531 C 119.636719 70.398438 127.898438 74.992188 135.628906 72.761719 C 144.035156 70.410156 152.519531 69.214844 160.808594 69.214844 C 209.964844 69.214844 250.25 107.476562 253.722656 155.800781 L 203.386719 155.816406 C 198.242188 155.816406 193.46875 158.488281 190.78125 162.863281 L 177.582031 184.382812 L 156.644531 99.257812 C 155.136719 93.007812 149.742188 88.484375 143.34375 88.042969 C 136.78125 87.703125 130.957031 91.367188 128.578125 97.324219 L 105.332031 155.859375 L 67.839844 155.84375 C 69.511719 132.199219 79.839844 110.445312 97.589844 94.054688 C 103.574219 88.53125 103.941406 79.175781 98.402344 73.175781 C 92.828125 67.144531 83.488281 66.820312 77.519531 72.347656 C 52.367188 95.59375 37.941406 128.476562 37.941406 162.539062 C 37.941406 230.285156 93.050781 285.390625 160.808594 285.390625 C 180.511719 285.390625 199.070312 280.617188 215.59375 272.328125 L 267.007812 323.742188 C 274.707031 331.441406 284.800781 335.285156 294.863281 335.285156 C 304.808594 335.285156 314.726562 331.515625 322.261719 323.976562 C 337.410156 308.828125 337.324219 284.046875 322.011719 268.722656 Z M 70.457031 185.402344 L 115.367188 185.417969 C 121.425781 185.417969 126.863281 181.722656 129.109375 176.089844 L 139.011719 151.160156 L 157.367188 225.789062 C 158.785156 231.582031 163.542969 235.941406 169.425781 236.875 C 170.195312 236.992188 170.964844 237.050781 171.703125 237.050781 C 176.785156 237.050781 181.589844 234.421875 184.308594 230.003906 L 211.675781 185.371094 L 251.136719 185.355469 C 240.921875 225.789062 204.363281 255.835938 160.808594 255.835938 C 117.273438 255.835938 80.695312 225.804688 70.457031 185.402344 Z M 301.367188 303.097656 C 297.789062 306.671875 291.628906 306.570312 287.902344 302.84375 L 240.703125 255.644531 C 245.429688 251.578125 249.851562 247.160156 253.914062 242.429688 L 301.101562 289.617188 C 304.824219 293.34375 304.941406 299.519531 301.367188 303.097656 Z M 301.367188 303.097656 " fill-opacity="1" fill-rule="nonzero"/></g></svg>