<svg xmlns="http://www.w3.org/2000/svg" xmlns:xlink="http://www.w3.org/1999/xlink" width="500" zoomAndPan="magnify" viewBox="0 0 375 374.999991" height="500" preserveAspectRatio="xMidYMid meet" version="1.0"><defs><clipPath id="1152ad4518"><path d="M 37.5 87.375 L 337.5 87.375 L 337.5 287.625 L 37.5 287.625 Z M 37.5 87.375 " clip-rule="nonzero"/></clipPath></defs><g clip-path="url(#1152ad4518)"><path fill="#ffffff" d="M 77.476562 187.714844 C 98.109375 187.714844 114.894531 170.929688 114.894531 150.296875 C 114.894531 129.664062 98.109375 112.878906 77.476562 112.878906 C 56.84375 112.878906 40.058594 129.664062 40.058594 150.296875 C 40.058594 170.929688 56.84375 187.714844 77.476562 187.714844 Z M 77.476562 121.1875 C 93.527344 121.1875 106.585938 134.246094 106.585938 150.296875 C 106.585938 166.347656 93.527344 179.40625 77.476562 179.40625 C 61.425781 179.40625 48.367188 166.347656 48.367188 150.296875 C 48.367188 134.246094 61.425781 121.1875 77.476562 121.1875 Z M 229.402344 261.351562 C 229.402344 263.644531 231.261719 265.507812 233.554688 265.507812 L 302.640625 265.507812 C 304.9375 265.507812 306.796875 263.644531 306.796875 261.351562 C 306.796875 261.308594 306.789062 261.269531 306.789062 261.230469 L 324.550781 194.945312 C 325.144531 192.730469 323.828125 190.453125 321.613281 189.859375 C 319.394531 189.265625 317.117188 190.578125 316.523438 192.796875 L 299.269531 257.199219 L 233.554688 257.199219 C 231.261719 257.199219 229.402344 259.058594 229.402344 261.351562 Z M 333.34375 279.285156 L 208.710938 279.285156 L 208.710938 271.59375 C 208.710938 259.375 198.769531 249.433594 186.554688 249.433594 L 175.480469 249.433594 C 170.753906 249.433594 166.132812 248.125 162.105469 245.648438 L 96.386719 200.933594 C 95.933594 200.628906 95.445312 200.425781 94.945312 200.316406 C 89.59375 197.820312 83.867188 196.554688 77.902344 196.554688 C 55.625 196.554688 37.5 214.675781 37.5 236.957031 L 37.5 283.4375 C 37.5 285.734375 39.359375 287.59375 41.65625 287.59375 C 43.949219 287.59375 45.808594 285.734375 45.808594 283.4375 L 45.808594 236.957031 C 45.808594 219.257812 60.207031 204.863281 77.902344 204.863281 C 82.910156 204.863281 87.703125 205.980469 92.152344 208.191406 C 92.265625 208.246094 92.382812 208.296875 92.5 208.339844 L 157.507812 252.570312 C 157.558594 252.605469 157.609375 252.636719 157.65625 252.667969 C 163.015625 255.988281 169.179688 257.742188 175.480469 257.742188 L 186.550781 257.742188 C 194.191406 257.742188 200.402344 263.957031 200.402344 271.59375 L 200.402344 279.285156 L 157.300781 279.285156 C 155.542969 279.285156 153.835938 278.777344 152.363281 277.820312 L 87.417969 235.605469 C 85.492188 234.355469 82.917969 234.902344 81.667969 236.824219 C 80.417969 238.746094 80.964844 241.320312 82.886719 242.570312 L 101.46875 254.648438 L 101.46875 283.300781 C 101.46875 285.59375 103.328125 287.453125 105.621094 287.453125 C 107.914062 287.453125 109.777344 285.59375 109.777344 283.300781 L 109.777344 260.046875 L 147.835938 284.789062 C 150.660156 286.625 153.933594 287.59375 157.300781 287.59375 L 333.34375 287.59375 C 335.640625 287.59375 337.5 285.734375 337.5 283.4375 C 337.5 281.144531 335.640625 279.285156 333.34375 279.285156 Z M 232.054688 208.761719 C 232.476562 208.910156 232.929688 208.992188 233.398438 208.992188 C 233.871094 208.992188 234.320312 208.910156 234.742188 208.765625 C 267.597656 208.082031 294.117188 181.144531 294.117188 148.128906 C 294.117188 114.957031 267.351562 87.925781 234.28125 87.488281 C 233.996094 87.425781 233.703125 87.390625 233.398438 87.390625 C 233.09375 87.390625 232.796875 87.425781 232.511719 87.488281 C 210.246094 87.835938 190.859375 100.234375 180.59375 118.4375 C 180.511719 118.570312 180.433594 118.707031 180.367188 118.847656 C 175.554688 127.53125 172.8125 137.515625 172.8125 148.128906 C 172.8125 181.101562 199.257812 208.011719 232.054688 208.761719 Z M 255.558594 195.574219 C 258.746094 191.148438 261.460938 185.761719 263.566406 179.636719 L 275.234375 179.636719 C 270.101562 186.429688 263.347656 191.929688 255.558594 195.574219 Z M 280.378906 171.328125 L 265.9375 171.328125 C 267.300781 165.433594 268.152344 159.054688 268.398438 152.34375 L 285.636719 152.34375 C 285.097656 159.113281 283.257812 165.523438 280.378906 171.328125 Z M 280.324219 124.824219 C 283.253906 130.691406 285.117188 137.179688 285.648438 144.035156 L 268.390625 144.035156 C 268.132812 137.238281 267.253906 130.777344 265.84375 124.824219 Z M 275.15625 116.515625 L 263.429688 116.515625 C 261.273438 110.355469 258.5 104.945312 255.242188 100.535156 C 263.125 104.15625 269.960938 109.679688 275.15625 116.515625 Z M 237.554688 96.722656 C 244.339844 98.820312 250.375 106.175781 254.496094 116.515625 L 237.554688 116.515625 Z M 237.554688 124.824219 L 257.222656 124.824219 C 258.78125 130.710938 259.777344 137.210938 260.074219 144.035156 L 237.554688 144.035156 Z M 237.554688 152.34375 L 260.082031 152.34375 C 259.800781 159.078125 258.835938 165.496094 257.324219 171.328125 L 237.554688 171.328125 Z M 237.554688 179.636719 L 254.65625 179.636719 C 250.527344 190.183594 244.429688 197.703125 237.554688 199.828125 Z M 191.695312 179.636719 L 203.585938 179.636719 C 205.714844 185.832031 208.464844 191.277344 211.703125 195.730469 C 203.773438 192.089844 196.902344 186.523438 191.695312 179.636719 Z M 229.246094 199.710938 C 222.515625 197.441406 216.554688 190.003906 212.496094 179.636719 L 229.246094 179.636719 Z M 229.246094 171.328125 L 209.824219 171.328125 C 208.316406 165.496094 207.351562 159.078125 207.070312 152.34375 L 229.246094 152.34375 Z M 229.246094 144.035156 L 207.078125 144.035156 C 207.375 137.210938 208.371094 130.710938 209.929688 124.824219 L 229.246094 124.824219 Z M 229.246094 96.839844 L 229.246094 116.515625 L 212.652344 116.515625 C 216.707031 106.355469 222.601562 99.082031 229.246094 96.839844 Z M 212.027344 100.378906 C 208.71875 104.820312 205.902344 110.28125 203.722656 116.515625 L 191.773438 116.515625 C 197.046875 109.582031 204 103.996094 212.027344 100.378906 Z M 186.605469 124.824219 L 201.308594 124.824219 C 199.898438 130.777344 199.019531 137.238281 198.757812 144.035156 L 181.28125 144.035156 C 181.8125 137.179688 183.675781 130.691406 186.605469 124.824219 Z M 181.292969 152.34375 L 198.753906 152.34375 C 199 159.054688 199.851562 165.433594 201.214844 171.328125 L 186.550781 171.328125 C 183.671875 165.523438 181.832031 159.113281 181.292969 152.34375 Z M 181.292969 152.34375 " fill-opacity="1" fill-rule="nonzero"/></g></svg>