<svg xmlns="http://www.w3.org/2000/svg" xmlns:xlink="http://www.w3.org/1999/xlink" width="400" zoomAndPan="magnify" viewBox="0 0 300 299.999988" height="400" preserveAspectRatio="xMidYMid meet" version="1.0"><defs><clipPath id="18134c1289"><path d="M 236 136 L 296.09375 136 L 296.09375 145 L 236 145 Z M 236 136 " clip-rule="nonzero"/></clipPath><clipPath id="4a7db85c29"><path d="M 59 63.003906 L 112 63.003906 L 112 218 L 59 218 Z M 59 63.003906 " clip-rule="nonzero"/></clipPath><clipPath id="51e20a230d"><path d="M 190 63.003906 L 243 63.003906 L 243 218 L 190 218 Z M 190 63.003906 " clip-rule="nonzero"/></clipPath></defs><path fill="#ffffff" d="M 223.652344 116.851562 L 271.386719 116.851562 L 271.386719 108.589844 L 223.652344 108.589844 Z M 223.652344 116.851562 " fill-opacity="1" fill-rule="evenodd"/><path fill="#ffffff" d="M 222.273438 171.929688 L 271.386719 171.929688 L 271.386719 163.667969 L 222.273438 163.667969 Z M 222.273438 171.929688 " fill-opacity="1" fill-rule="evenodd"/><g clip-path="url(#18134c1289)"><path fill="#ffffff" d="M 236.207031 144.390625 L 297.527344 144.390625 L 297.527344 136.128906 L 236.207031 136.128906 Z M 236.207031 144.390625 " fill-opacity="1" fill-rule="evenodd"/></g><path fill="#ffffff" d="M 30.382812 116.851562 L 79.492188 116.851562 L 79.492188 108.589844 L 30.382812 108.589844 Z M 30.382812 116.851562 " fill-opacity="1" fill-rule="evenodd"/><path fill="#ffffff" d="M 30.382812 171.929688 L 79.492188 171.929688 L 79.492188 163.667969 L 30.382812 163.667969 Z M 30.382812 171.929688 " fill-opacity="1" fill-rule="evenodd"/><path fill="#ffffff" d="M 4.304688 144.390625 L 64.039062 144.390625 L 64.039062 136.128906 L 4.304688 136.128906 Z M 4.304688 144.390625 " fill-opacity="1" fill-rule="evenodd"/><g clip-path="url(#4a7db85c29)"><path fill="#ffffff" d="M 103.910156 217.367188 L 59.28125 140.261719 L 103.910156 63.152344 L 111.085938 67.28125 L 68.867188 140.261719 L 111.085938 213.238281 L 103.910156 217.367188 " fill-opacity="1" fill-rule="evenodd"/></g><g clip-path="url(#51e20a230d)"><path fill="#ffffff" d="M 197.855469 217.367188 L 190.683594 213.238281 L 232.898438 140.261719 L 190.683594 67.28125 L 197.855469 63.152344 L 242.488281 140.261719 L 197.855469 217.367188 " fill-opacity="1" fill-rule="evenodd"/></g><path fill="#ffffff" d="M 146.515625 168.347656 L 127.175781 112.9375 L 135.070312 112.9375 L 150.929688 161.328125 L 166.792969 112.9375 L 174.097656 112.9375 L 154.761719 168.347656 Z M 146.515625 168.347656 " fill-opacity="1" fill-rule="evenodd"/></svg>