<svg xmlns="http://www.w3.org/2000/svg" xmlns:xlink="http://www.w3.org/1999/xlink" width="400" zoomAndPan="magnify" viewBox="0 0 300 299.999988" height="400" preserveAspectRatio="xMidYMid meet" version="1.0"><defs><g/><clipPath id="e65c6df5e9"><path d="M 209 90 L 250.769531 90 L 250.769531 96 L 209 96 Z M 209 90 " clip-rule="nonzero"/></clipPath><clipPath id="8d7a89fdd2"><path d="M 90 41.191406 L 126 41.191406 L 126 146 L 90 146 Z M 90 41.191406 " clip-rule="nonzero"/></clipPath><clipPath id="77550eafa1"><path d="M 179 41.191406 L 214 41.191406 L 214 146 L 179 146 Z M 179 41.191406 " clip-rule="nonzero"/></clipPath><clipPath id="883a5a2c9c"><path d="M 49.019531 168 L 91 168 L 91 201 L 49.019531 201 Z M 49.019531 168 " clip-rule="nonzero"/></clipPath><clipPath id="332051786c"><path d="M 234 168 L 250.769531 168 L 250.769531 190 L 234 190 Z M 234 168 " clip-rule="nonzero"/></clipPath><clipPath id="f3d0a7dec4"><path d="M 239.980469 215.15625 L 256.480469 215.15625 L 256.480469 231.65625 L 239.980469 231.65625 Z M 239.980469 215.15625 " clip-rule="nonzero"/></clipPath></defs><path fill="#ffffff" d="M 201.164062 77.429688 L 233.1875 77.429688 L 233.1875 71.871094 L 201.164062 71.871094 Z M 201.164062 77.429688 " fill-opacity="1" fill-rule="evenodd"/><path fill="#ffffff" d="M 200.238281 114.492188 L 233.1875 114.492188 L 233.1875 108.933594 L 200.238281 108.933594 Z M 200.238281 114.492188 " fill-opacity="1" fill-rule="evenodd"/><g clip-path="url(#e65c6df5e9)"><path fill="#ffffff" d="M 209.589844 95.960938 L 250.722656 95.960938 L 250.722656 90.402344 L 209.589844 90.402344 Z M 209.589844 95.960938 " fill-opacity="1" fill-rule="evenodd"/></g><path fill="#ffffff" d="M 71.515625 77.429688 L 104.457031 77.429688 L 104.457031 71.871094 L 71.515625 71.871094 Z M 71.515625 77.429688 " fill-opacity="1" fill-rule="evenodd"/><path fill="#ffffff" d="M 71.515625 114.492188 L 104.457031 114.492188 L 104.457031 108.933594 L 71.515625 108.933594 Z M 71.515625 114.492188 " fill-opacity="1" fill-rule="evenodd"/><path fill="#ffffff" d="M 54.019531 95.960938 L 94.09375 95.960938 L 94.09375 90.402344 L 54.019531 90.402344 Z M 54.019531 95.960938 " fill-opacity="1" fill-rule="evenodd"/><g clip-path="url(#8d7a89fdd2)"><path fill="#ffffff" d="M 120.839844 145.070312 L 90.902344 93.179688 L 120.839844 41.292969 L 125.652344 44.070312 L 97.332031 93.179688 L 125.652344 142.292969 L 120.839844 145.070312 " fill-opacity="1" fill-rule="evenodd"/></g><g clip-path="url(#77550eafa1)"><path fill="#ffffff" d="M 183.859375 145.070312 L 179.050781 142.292969 L 207.367188 93.179688 L 179.050781 44.070312 L 183.859375 41.292969 L 213.800781 93.179688 L 183.859375 145.070312 " fill-opacity="1" fill-rule="evenodd"/></g><path fill="#ffffff" d="M 149.421875 112.082031 L 136.445312 74.792969 L 141.742188 74.792969 L 152.382812 107.359375 L 163.023438 74.792969 L 167.921875 74.792969 L 154.953125 112.082031 Z M 149.421875 112.082031 " fill-opacity="1" fill-rule="evenodd"/><g clip-path="url(#883a5a2c9c)"><path fill="#ffffff" d="M 67.347656 168.445312 L 59.972656 189.453125 L 56.371094 189.453125 L 49.011719 168.445312 L 52.84375 168.445312 L 58.28125 185.992188 L 63.730469 168.445312 Z M 69.761719 168.445312 L 73.59375 168.445312 L 80.304688 186.269531 L 86.550781 168.445312 L 90.148438 168.445312 L 78.046875 200.746094 L 74.332031 200.746094 L 78.539062 190.496094 Z M 69.761719 168.445312 " fill-opacity="1" fill-rule="nonzero"/></g><path fill="#ffffff" d="M 104.191406 168.039062 C 107.101562 168.039062 109.488281 168.972656 111.363281 170.835938 C 113.242188 172.6875 114.183594 175.25 114.183594 178.523438 C 114.183594 181.996094 113.21875 184.757812 111.304688 186.804688 C 109.382812 188.851562 106.902344 189.875 103.859375 189.875 C 100.953125 189.875 98.582031 188.914062 96.742188 186.992188 C 94.898438 185.074219 93.980469 182.472656 93.980469 179.1875 C 93.980469 175.800781 94.914062 173.101562 96.785156 171.082031 C 98.667969 169.054688 101.132812 168.039062 104.191406 168.039062 Z M 103.902344 171.023438 C 102.15625 171.023438 100.632812 171.699219 99.332031 173.050781 C 98.03125 174.394531 97.378906 176.234375 97.378906 178.582031 C 97.378906 180.925781 98.015625 182.902344 99.289062 184.503906 C 100.558594 186.105469 102.210938 186.90625 104.234375 186.90625 C 106.101562 186.90625 107.660156 186.195312 108.902344 184.777344 C 110.15625 183.359375 110.785156 181.511719 110.785156 179.230469 C 110.785156 177.921875 110.582031 176.734375 110.175781 175.671875 C 109.769531 174.609375 109.238281 173.746094 108.570312 173.078125 C 107.914062 172.414062 107.183594 171.90625 106.375 171.558594 C 105.570312 171.203125 104.746094 171.023438 103.902344 171.023438 Z M 103.902344 171.023438 " fill-opacity="1" fill-rule="nonzero"/><path fill="#ffffff" d="M 129.175781 171.253906 C 127.953125 171.253906 126.3125 171.789062 124.261719 172.863281 L 124.261719 189.453125 L 120.777344 189.453125 L 120.777344 168.445312 L 123.21875 168.445312 L 123.972656 170.183594 C 126.503906 168.757812 128.699219 168.039062 130.550781 168.039062 C 132.691406 168.039062 134.367188 168.824219 135.582031 170.386719 C 138.359375 168.832031 140.847656 168.054688 143.042969 168.054688 C 144.101562 168.054688 145.03125 168.207031 145.835938 168.503906 C 146.644531 168.792969 147.296875 169.191406 147.800781 169.691406 C 148.3125 170.195312 148.726562 170.828125 149.046875 171.585938 C 149.363281 172.339844 149.578125 173.144531 149.695312 173.992188 C 149.820312 174.832031 149.882812 175.78125 149.882812 176.84375 L 149.882812 189.453125 L 146.398438 189.453125 L 146.398438 176.613281 C 146.398438 176.351562 146.386719 176.117188 146.371094 175.902344 C 146.359375 175.679688 146.324219 175.378906 146.269531 174.988281 C 146.210938 174.59375 146.125 174.246094 146.007812 173.949219 C 145.902344 173.640625 145.738281 173.3125 145.515625 172.964844 C 145.292969 172.609375 145.023438 172.3125 144.707031 172.078125 C 144.394531 171.839844 144.003906 171.640625 143.519531 171.488281 C 143.039062 171.335938 142.503906 171.253906 141.917969 171.253906 C 140.617188 171.253906 138.894531 171.804688 136.753906 172.90625 C 136.945312 173.746094 137.042969 175.105469 137.042969 176.988281 L 137.042969 189.453125 L 133.574219 189.453125 L 133.574219 176.523438 C 133.574219 176.160156 133.558594 175.8125 133.527344 175.480469 C 133.5 175.144531 133.398438 174.699219 133.226562 174.152344 C 133.050781 173.59375 132.824219 173.121094 132.546875 172.730469 C 132.265625 172.335938 131.832031 171.992188 131.246094 171.703125 C 130.65625 171.40625 129.964844 171.253906 129.175781 171.253906 Z M 129.175781 171.253906 " fill-opacity="1" fill-rule="nonzero"/><path fill="#ffffff" d="M 164.601562 168.039062 C 166.152344 168.039062 167.464844 168.226562 168.546875 168.589844 C 169.636719 168.949219 170.472656 169.472656 171.0625 170.167969 C 171.648438 170.863281 172.070312 171.636719 172.320312 172.484375 C 172.582031 173.335938 172.710938 174.316406 172.710938 175.425781 L 172.710938 189.453125 L 170.238281 189.453125 L 169.445312 187.542969 C 167.726562 189.097656 165.757812 189.875 163.53125 189.875 C 161.554688 189.875 159.875 189.277344 158.5 188.078125 C 157.128906 186.882812 156.445312 185.484375 156.445312 183.878906 C 156.445312 183.03125 156.597656 182.269531 156.90625 181.59375 C 157.214844 180.910156 157.664062 180.339844 158.253906 179.882812 C 158.839844 179.429688 159.511719 179.042969 160.261719 178.726562 C 161.015625 178.40625 161.886719 178.167969 162.878906 178 C 163.878906 177.828125 164.882812 177.707031 165.886719 177.640625 C 166.898438 177.5625 168 177.523438 169.199219 177.523438 L 169.199219 175.859375 C 169.199219 175.386719 169.175781 174.972656 169.140625 174.613281 C 169.113281 174.257812 168.996094 173.832031 168.792969 173.339844 C 168.597656 172.839844 168.332031 172.425781 167.984375 172.109375 C 167.644531 171.789062 167.132812 171.515625 166.453125 171.285156 C 165.773438 171.050781 164.96875 170.9375 164.035156 170.9375 C 162.597656 170.9375 160.730469 171.253906 158.441406 171.890625 L 157.777344 169.34375 C 160.09375 168.476562 162.375 168.039062 164.601562 168.039062 Z M 169.199219 180.160156 L 167.910156 180.160156 C 167.101562 180.160156 166.398438 180.171875 165.800781 180.203125 C 165.210938 180.230469 164.515625 180.316406 163.71875 180.449219 C 162.914062 180.585938 162.261719 180.773438 161.75 181.011719 C 161.238281 181.257812 160.800781 181.605469 160.4375 182.070312 C 160.078125 182.527344 159.898438 183.070312 159.898438 183.707031 C 159.898438 184.605469 160.347656 185.398438 161.246094 186.09375 C 162.148438 186.789062 163.226562 187.136719 164.46875 187.136719 C 166.292969 187.136719 167.867188 186.425781 169.199219 184.996094 Z M 169.199219 180.160156 " fill-opacity="1" fill-rule="nonzero"/><path fill="#ffffff" d="M 189.046875 168.039062 C 189.335938 168.039062 189.613281 168.046875 189.871094 168.054688 C 190.140625 168.054688 190.398438 168.070312 190.640625 168.097656 C 190.886719 168.128906 191.101562 168.152344 191.273438 168.171875 C 191.457031 168.179688 191.664062 168.210938 191.898438 168.257812 C 192.128906 168.296875 192.292969 168.328125 192.402344 168.34375 C 192.507812 168.367188 192.683594 168.410156 192.9375 168.476562 C 193.1875 168.542969 193.34375 168.585938 193.402344 168.605469 C 193.457031 168.617188 193.621094 168.664062 193.890625 168.75 C 194.171875 168.828125 194.332031 168.875 194.367188 168.894531 L 193.488281 171.542969 C 191.585938 171.023438 189.914062 170.761719 188.46875 170.761719 C 187.632812 170.761719 186.886719 170.847656 186.242188 171.023438 C 185.605469 171.191406 185.113281 171.390625 184.769531 171.632812 C 184.421875 171.875 184.136719 172.152344 183.914062 172.46875 C 183.691406 172.789062 183.546875 173.070312 183.480469 173.3125 C 183.421875 173.554688 183.394531 173.789062 183.394531 174.019531 C 183.394531 174.597656 183.691406 175.117188 184.292969 175.570312 C 184.898438 176.023438 185.652344 176.394531 186.546875 176.683594 C 187.441406 176.964844 188.414062 177.300781 189.46875 177.683594 C 190.515625 178.070312 191.492188 178.480469 192.390625 178.914062 C 193.285156 179.347656 194.03125 179.957031 194.628906 180.738281 C 195.238281 181.519531 195.539062 182.417969 195.539062 183.429688 C 195.539062 184.019531 195.460938 184.589844 195.308594 185.140625 C 195.164062 185.683594 194.882812 186.25 194.472656 186.847656 C 194.054688 187.4375 193.515625 187.949219 192.851562 188.382812 C 192.195312 188.816406 191.3125 189.175781 190.203125 189.453125 C 189.105469 189.730469 187.835938 189.875 186.402344 189.875 C 184.242188 189.875 181.867188 189.34375 179.273438 188.28125 L 180.257812 185.644531 C 181.710938 186.1875 182.902344 186.574219 183.828125 186.804688 C 184.753906 187.027344 185.664062 187.136719 186.5625 187.136719 C 190.011719 187.136719 191.738281 186.035156 191.738281 183.835938 C 191.738281 183.355469 191.566406 182.929688 191.230469 182.5625 C 190.890625 182.195312 190.441406 181.894531 189.871094 181.664062 C 189.300781 181.425781 188.660156 181.183594 187.949219 180.941406 C 187.234375 180.691406 186.507812 180.457031 185.765625 180.246094 C 185.019531 180.035156 184.292969 179.753906 183.570312 179.40625 C 182.851562 179.058594 182.210938 178.679688 181.644531 178.261719 C 181.085938 177.839844 180.632812 177.292969 180.285156 176.625 C 179.945312 175.960938 179.78125 175.214844 179.78125 174.382812 C 179.78125 173.871094 179.859375 173.351562 180.023438 172.816406 C 180.1875 172.289062 180.492188 171.730469 180.9375 171.140625 C 181.386719 170.550781 181.949219 170.035156 182.613281 169.589844 C 183.277344 169.136719 184.164062 168.765625 185.273438 168.476562 C 186.378906 168.183594 187.636719 168.039062 189.046875 168.039062 Z M 189.046875 168.039062 " fill-opacity="1" fill-rule="nonzero"/><path fill="#ffffff" d="M 213.054688 189.09375 C 211.007812 189.613281 209.414062 189.875 208.269531 189.875 C 207.121094 189.875 206.148438 189.6875 205.347656 189.324219 C 204.554688 188.957031 203.953125 188.4375 203.542969 187.757812 C 203.136719 187.074219 202.839844 186.339844 202.660156 185.558594 C 202.484375 184.769531 202.398438 183.863281 202.398438 182.835938 L 202.398438 171.183594 L 199.578125 171.183594 L 199.578125 168.445312 L 202.398438 168.445312 L 202.398438 162.421875 L 205.882812 162.421875 L 205.882812 168.445312 L 212.273438 168.445312 L 212.273438 171.183594 L 205.882812 171.183594 L 205.882812 182.792969 C 205.882812 185.699219 207.027344 187.152344 209.324219 187.152344 C 209.738281 187.152344 210.820312 187.007812 212.578125 186.71875 Z M 213.054688 189.09375 " fill-opacity="1" fill-rule="nonzero"/><path fill="#ffffff" d="M 221.496094 170.023438 C 223.261719 168.703125 225.214844 168.039062 227.351562 168.039062 C 228.828125 168.039062 230.164062 168.316406 231.371094 168.867188 L 230.304688 171.660156 C 229.203125 171.238281 228.054688 171.023438 226.859375 171.023438 C 225.097656 171.023438 223.433594 171.511719 221.871094 172.484375 L 221.871094 189.453125 L 218.386719 189.453125 L 218.386719 168.445312 L 220.832031 168.445312 Z M 221.496094 170.023438 " fill-opacity="1" fill-rule="nonzero"/><g clip-path="url(#332051786c)"><path fill="#ffffff" d="M 242.332031 168.039062 C 243.882812 168.039062 245.199219 168.226562 246.28125 168.589844 C 247.367188 168.949219 248.207031 169.472656 248.796875 170.167969 C 249.382812 170.863281 249.800781 171.636719 250.054688 172.484375 C 250.316406 173.335938 250.445312 174.316406 250.445312 175.425781 L 250.445312 189.453125 L 247.972656 189.453125 L 247.175781 187.542969 C 245.460938 189.097656 243.488281 189.875 241.261719 189.875 C 239.285156 189.875 237.609375 189.277344 236.230469 188.078125 C 234.859375 186.882812 234.175781 185.484375 234.175781 183.878906 C 234.175781 183.03125 234.328125 182.269531 234.640625 181.59375 C 234.949219 180.910156 235.394531 180.339844 235.984375 179.882812 C 236.570312 179.429688 237.242188 179.042969 237.996094 178.726562 C 238.746094 178.40625 239.617188 178.167969 240.613281 178 C 241.613281 177.828125 242.613281 177.707031 243.621094 177.640625 C 244.632812 177.5625 245.734375 177.523438 246.929688 177.523438 L 246.929688 175.859375 C 246.929688 175.386719 246.910156 174.972656 246.875 174.613281 C 246.84375 174.257812 246.730469 173.832031 246.527344 173.339844 C 246.332031 172.839844 246.0625 172.425781 245.71875 172.109375 C 245.378906 171.789062 244.867188 171.515625 244.183594 171.285156 C 243.507812 171.050781 242.703125 170.9375 241.769531 170.9375 C 240.332031 170.9375 238.464844 171.253906 236.171875 171.890625 L 235.507812 169.34375 C 237.828125 168.476562 240.105469 168.039062 242.332031 168.039062 Z M 246.929688 180.160156 L 245.644531 180.160156 C 244.835938 180.160156 244.128906 180.171875 243.535156 180.203125 C 242.945312 180.230469 242.25 180.316406 241.453125 180.449219 C 240.648438 180.585938 239.992188 180.773438 239.484375 181.011719 C 238.972656 181.257812 238.535156 181.605469 238.167969 182.070312 C 237.8125 182.527344 237.632812 183.070312 237.632812 183.707031 C 237.632812 184.605469 238.082031 185.398438 238.980469 186.09375 C 239.882812 186.789062 240.960938 187.136719 242.203125 187.136719 C 244.023438 187.136719 245.601562 186.425781 246.929688 184.996094 Z M 246.929688 180.160156 " fill-opacity="1" fill-rule="nonzero"/></g><g fill="#ffffff" fill-opacity="1"><g transform="translate(48.594117, 240.063536)"><g><path d="M 12.824219 -15.058594 L 9.988281 -15.058594 L 6.351562 -9.386719 L 2.734375 -15.058594 L -0.152344 -15.058594 L 5.121094 -7.078125 L 5.121094 0 L 7.578125 0 L 7.578125 -7.128906 Z M 12.824219 -15.058594 "/></g></g></g><g fill="#ffffff" fill-opacity="1"><g transform="translate(61.265485, 240.063536)"><g><path d="M 6.351562 0.199219 C 9.460938 0.199219 11.746094 -2.082031 11.746094 -5.019531 C 11.746094 -7.957031 9.460938 -10.242188 6.351562 -10.242188 C 3.238281 -10.242188 0.953125 -7.957031 0.953125 -5.019531 C 0.953125 -2.082031 3.238281 0.199219 6.351562 0.199219 Z M 6.351562 -2.007812 C 4.644531 -2.007812 3.339844 -3.339844 3.339844 -5.019531 C 3.339844 -6.703125 4.644531 -8.03125 6.351562 -8.03125 C 8.03125 -8.03125 9.363281 -6.703125 9.363281 -5.019531 C 9.363281 -3.339844 8.03125 -2.007812 6.351562 -2.007812 Z M 6.351562 -2.007812 "/></g></g></g><g fill="#ffffff" fill-opacity="1"><g transform="translate(73.961943, 240.063536)"><g><path d="M 5.597656 0.199219 C 8.234375 0.199219 9.8125 -1.304688 9.8125 -3.714844 L 9.8125 -10.039062 L 7.453125 -10.039062 L 7.453125 -4.015625 C 7.453125 -2.785156 6.675781 -2.007812 5.597656 -2.007812 C 4.519531 -2.007812 3.738281 -2.785156 3.738281 -4.015625 L 3.738281 -10.039062 L 1.378906 -10.039062 L 1.378906 -3.714844 C 1.378906 -1.304688 2.960938 0.199219 5.597656 0.199219 Z M 5.597656 0.199219 "/></g></g></g><g fill="#ffffff" fill-opacity="1"><g transform="translate(85.152891, 240.063536)"><g><path d="M 7.128906 -10.242188 C 5.824219 -10.242188 4.742188 -9.636719 4.039062 -8.660156 L 4.039062 -10.039062 L 1.65625 -10.039062 L 1.65625 0 L 4.039062 0 L 4.039062 -5.09375 C 4.039062 -6.851562 5.347656 -8.03125 7.078125 -8.03125 C 7.40625 -8.03125 7.679688 -7.980469 7.929688 -7.929688 L 7.929688 -10.164062 C 7.679688 -10.214844 7.40625 -10.242188 7.128906 -10.242188 Z M 7.128906 -10.242188 "/></g></g></g><g fill="#ffffff" fill-opacity="1"><g transform="translate(93.106996, 240.063536)"><g/></g></g><g fill="#ffffff" fill-opacity="1"><g transform="translate(99.129026, 240.063536)"><g><path d="M 11.621094 -5.070312 C 11.570312 -8.082031 9.363281 -10.242188 6.324219 -10.242188 C 3.261719 -10.242188 0.953125 -8.03125 0.953125 -5.019531 C 0.953125 -2.007812 3.238281 0.199219 6.351562 0.199219 C 8.933594 0.199219 10.867188 -1.332031 11.445312 -3.515625 L 9.0625 -3.515625 C 8.632812 -2.460938 7.628906 -1.78125 6.351562 -1.78125 C 4.667969 -1.78125 3.488281 -2.960938 3.363281 -4.644531 L 11.597656 -4.644531 Z M 6.351562 -8.234375 C 7.65625 -8.234375 8.582031 -7.503906 9.011719 -6.351562 L 3.5625 -6.351562 C 4.015625 -7.480469 4.996094 -8.234375 6.351562 -8.234375 Z M 6.351562 -8.234375 "/></g></g></g><g fill="#ffffff" fill-opacity="1"><g transform="translate(111.624741, 240.063536)"><g><path d="M 8.207031 -10.039062 L 5.445312 -2.609375 L 2.585938 -10.039062 L 0.0507812 -10.039062 L 4.191406 0.175781 L 1.808594 6.023438 L 4.316406 6.023438 L 10.769531 -10.039062 Z M 8.207031 -10.039062 "/></g></g></g><g fill="#ffffff" fill-opacity="1"><g transform="translate(122.439307, 240.063536)"><g><path d="M 11.621094 -5.070312 C 11.570312 -8.082031 9.363281 -10.242188 6.324219 -10.242188 C 3.261719 -10.242188 0.953125 -8.03125 0.953125 -5.019531 C 0.953125 -2.007812 3.238281 0.199219 6.351562 0.199219 C 8.933594 0.199219 10.867188 -1.332031 11.445312 -3.515625 L 9.0625 -3.515625 C 8.632812 -2.460938 7.628906 -1.78125 6.351562 -1.78125 C 4.667969 -1.78125 3.488281 -2.960938 3.363281 -4.644531 L 11.597656 -4.644531 Z M 6.351562 -8.234375 C 7.65625 -8.234375 8.582031 -7.503906 9.011719 -6.351562 L 3.5625 -6.351562 C 4.015625 -7.480469 4.996094 -8.234375 6.351562 -8.234375 Z M 6.351562 -8.234375 "/></g></g></g><g fill="#ffffff" fill-opacity="1"><g transform="translate(134.935022, 240.063536)"><g/></g></g><g fill="#ffffff" fill-opacity="1"><g transform="translate(140.957052, 240.063536)"><g><path d="M 6.351562 0.199219 C 9.460938 0.199219 11.746094 -2.082031 11.746094 -5.019531 C 11.746094 -7.957031 9.460938 -10.242188 6.351562 -10.242188 C 3.238281 -10.242188 0.953125 -7.957031 0.953125 -5.019531 C 0.953125 -2.082031 3.238281 0.199219 6.351562 0.199219 Z M 6.351562 -2.007812 C 4.644531 -2.007812 3.339844 -3.339844 3.339844 -5.019531 C 3.339844 -6.703125 4.644531 -8.03125 6.351562 -8.03125 C 8.03125 -8.03125 9.363281 -6.703125 9.363281 -5.019531 C 9.363281 -3.339844 8.03125 -2.007812 6.351562 -2.007812 Z M 6.351562 -2.007812 "/></g></g></g><g fill="#ffffff" fill-opacity="1"><g transform="translate(153.653511, 240.063536)"><g><path d="M 6.625 -10.242188 C 5.621094 -10.242188 4.71875 -9.8125 4.039062 -9.085938 L 4.039062 -10.039062 L 1.65625 -10.039062 L 1.65625 0 L 4.039062 0 L 4.039062 -6.125 C 4.039062 -7.203125 4.894531 -8.03125 6 -8.03125 C 7.101562 -8.03125 7.929688 -7.203125 7.929688 -6.125 L 7.929688 0 L 10.289062 0 L 10.289062 -6.375 C 10.289062 -8.558594 8.582031 -10.242188 6.625 -10.242188 Z M 6.625 -10.242188 "/></g></g></g><g fill="#ffffff" fill-opacity="1"><g transform="translate(165.421568, 240.063536)"><g/></g></g><g fill="#ffffff" fill-opacity="1"><g transform="translate(171.443599, 240.063536)"><g><path d="M 6.976562 -8.03125 L 6.976562 -10.039062 L 4.441406 -10.039062 L 4.441406 -14.15625 L 2.058594 -14.15625 L 2.058594 -10.039062 L 0.402344 -10.039062 L 0.402344 -8.03125 L 2.058594 -8.03125 L 2.058594 -3.113281 C 2.058594 -1.253906 3.640625 0.199219 5.472656 0.199219 C 6.050781 0.199219 6.675781 0.0507812 6.925781 -0.125 L 6.925781 -1.957031 L 5.773438 -1.957031 C 5.019531 -1.957031 4.441406 -2.511719 4.441406 -3.386719 L 4.441406 -8.03125 Z M 6.976562 -8.03125 "/></g></g></g><g fill="#ffffff" fill-opacity="1"><g transform="translate(179.071504, 240.063536)"><g><path d="M 6.5 -10.242188 C 5.570312 -10.242188 4.71875 -9.890625 4.039062 -9.3125 L 4.039062 -17.871094 L 1.65625 -17.871094 L 1.65625 0 L 4.039062 0 L 4.039062 -6.050781 C 4.039062 -7.128906 4.894531 -8.03125 5.972656 -8.03125 C 7.027344 -8.03125 7.855469 -7.203125 7.855469 -6.148438 L 7.855469 0 L 10.242188 0 L 10.242188 -6.375 C 10.242188 -8.558594 8.582031 -10.242188 6.5 -10.242188 Z M 6.5 -10.242188 "/></g></g></g><g fill="#ffffff" fill-opacity="1"><g transform="translate(190.78938, 240.063536)"><g><path d="M 11.621094 -5.070312 C 11.570312 -8.082031 9.363281 -10.242188 6.324219 -10.242188 C 3.261719 -10.242188 0.953125 -8.03125 0.953125 -5.019531 C 0.953125 -2.007812 3.238281 0.199219 6.351562 0.199219 C 8.933594 0.199219 10.867188 -1.332031 11.445312 -3.515625 L 9.0625 -3.515625 C 8.632812 -2.460938 7.628906 -1.78125 6.351562 -1.78125 C 4.667969 -1.78125 3.488281 -2.960938 3.363281 -4.644531 L 11.597656 -4.644531 Z M 6.351562 -8.234375 C 7.65625 -8.234375 8.582031 -7.503906 9.011719 -6.351562 L 3.5625 -6.351562 C 4.015625 -7.480469 4.996094 -8.234375 6.351562 -8.234375 Z M 6.351562 -8.234375 "/></g></g></g><g fill="#ffffff" fill-opacity="1"><g transform="translate(203.285095, 240.063536)"><g/></g></g><g fill="#ffffff" fill-opacity="1"><g transform="translate(209.307125, 240.063536)"><g><path d="M 4.492188 0.199219 C 6.5 0.199219 7.929688 -1.078125 7.929688 -2.886719 C 7.929688 -4.792969 6.324219 -5.546875 4.96875 -6.097656 C 3.992188 -6.5 3.515625 -6.703125 3.515625 -7.328125 C 3.515625 -7.90625 3.914062 -8.234375 4.59375 -8.234375 C 5.246094 -8.234375 5.824219 -7.929688 6.097656 -7.480469 L 7.605469 -8.710938 C 7.078125 -9.5625 5.796875 -10.242188 4.441406 -10.242188 C 2.558594 -10.242188 1.15625 -8.960938 1.15625 -7.203125 C 1.15625 -5.421875 2.636719 -4.667969 4.140625 -4.117188 C 5.195312 -3.691406 5.671875 -3.414062 5.671875 -2.835938 C 5.671875 -2.207031 5.121094 -1.855469 4.417969 -1.855469 C 3.691406 -1.855469 2.886719 -2.207031 2.585938 -2.988281 L 0.652344 -2.109375 C 1.128906 -0.726562 2.8125 0.199219 4.492188 0.199219 Z M 4.492188 0.199219 "/></g></g></g><g fill="#ffffff" fill-opacity="1"><g transform="translate(217.83834, 240.063536)"><g><path d="M 11.570312 0 L 6.652344 -5.523438 L 11.167969 -10.039062 L 8.207031 -10.039062 L 4.167969 -6.023438 L 4.167969 -17.871094 L 1.808594 -17.871094 L 1.808594 0 L 4.167969 0 L 4.167969 -5.144531 L 8.433594 0 Z M 11.570312 0 "/></g></g></g><g fill="#ffffff" fill-opacity="1"><g transform="translate(229.029288, 240.063536)"><g><path d="M 8.207031 -10.039062 L 5.445312 -2.609375 L 2.585938 -10.039062 L 0.0507812 -10.039062 L 4.191406 0.175781 L 1.808594 6.023438 L 4.316406 6.023438 L 10.769531 -10.039062 Z M 8.207031 -10.039062 "/></g></g></g><path fill="#ffffff" d="M 246.691406 220.355469 L 248.742188 220.355469 C 248.953125 220.355469 249.140625 220.40625 249.300781 220.507812 C 249.457031 220.605469 249.582031 220.75 249.671875 220.933594 C 249.757812 221.121094 249.800781 221.332031 249.800781 221.574219 C 249.800781 221.8125 249.757812 222.027344 249.671875 222.210938 C 249.582031 222.394531 249.457031 222.539062 249.296875 222.640625 C 249.136719 222.738281 248.949219 222.789062 248.742188 222.789062 L 246.691406 222.789062 Z M 249.996094 227.148438 L 251.300781 227.148438 L 249.496094 223.71875 C 249.632812 223.675781 249.761719 223.621094 249.886719 223.554688 C 250.230469 223.367188 250.496094 223.101562 250.6875 222.761719 C 250.875 222.417969 250.972656 222.023438 250.972656 221.574219 C 250.972656 221.125 250.878906 220.726562 250.6875 220.386719 C 250.5 220.042969 250.234375 219.777344 249.890625 219.589844 C 249.546875 219.40625 249.152344 219.3125 248.699219 219.3125 L 245.589844 219.3125 L 245.589844 227.148438 L 246.691406 227.148438 L 246.691406 223.835938 L 248.324219 223.835938 L 249.996094 227.148438 " fill-opacity="1" fill-rule="nonzero"/><g clip-path="url(#f3d0a7dec4)"><path fill="#ffffff" d="M 255.605469 223.402344 C 255.605469 227.472656 252.296875 230.78125 248.230469 230.78125 C 244.164062 230.78125 240.855469 227.472656 240.855469 223.402344 C 240.855469 219.335938 244.164062 216.027344 248.230469 216.027344 C 252.296875 216.027344 255.605469 219.335938 255.605469 223.402344 Z M 255.832031 220.191406 C 255.414062 219.210938 254.820312 218.328125 254.0625 217.570312 C 253.304688 216.8125 252.421875 216.21875 251.441406 215.800781 C 250.421875 215.371094 249.34375 215.152344 248.230469 215.152344 C 247.117188 215.152344 246.035156 215.371094 245.019531 215.800781 C 244.035156 216.21875 243.152344 216.8125 242.394531 217.570312 C 241.636719 218.328125 241.042969 219.210938 240.628906 220.191406 C 240.199219 221.210938 239.980469 222.289062 239.980469 223.402344 C 239.980469 224.519531 240.199219 225.597656 240.628906 226.617188 C 241.042969 227.597656 241.636719 228.480469 242.394531 229.238281 C 243.152344 229.996094 244.035156 230.589844 245.019531 231.003906 C 246.035156 231.4375 247.117188 231.65625 248.230469 231.65625 C 249.34375 231.65625 250.421875 231.4375 251.441406 231.003906 C 252.421875 230.589844 253.304688 229.996094 254.0625 229.238281 C 254.820312 228.480469 255.414062 227.597656 255.832031 226.617188 C 256.261719 225.597656 256.480469 224.519531 256.480469 223.402344 C 256.480469 222.289062 256.261719 221.210938 255.832031 220.191406 " fill-opacity="1" fill-rule="nonzero"/></g></svg>